RedHatMono-Bold.ufo
<glyph name="exclam" format="2">
  <advance width="600"/>
  <unicode hex="0021"/>
  <outline>
    <contour>
      <point x="241" y="242" type="line"/>
      <point x="359" y="242" type="line"/>
      <point x="378" y="727" type="line"/>
      <point x="222" y="727" type="line"/>
    </contour>
    <contour>
      <point x="300" y="-10" type="curve" smooth="yes"/>
      <point x="357" y="-10"/>
      <point x="401" y="34"/>
      <point x="401" y="90" type="curve" smooth="yes"/>
      <point x="401" y="146"/>
      <point x="357" y="190"/>
      <point x="300" y="190" type="curve" smooth="yes"/>
      <point x="243" y="190"/>
      <point x="199" y="146"/>
      <point x="199" y="90" type="curve" smooth="yes"/>
      <point x="199" y="34"/>
      <point x="243" y="-10"/>
    </contour>
  </outline>
</glyph>
<glyph name="dollar" format="2">
  <advance width="600"/>
  <unicode hex="0024"/>
  <outline>
    <contour>
      <point x="261" y="-67" type="line"/>
      <point x="339" y="-67" type="line"/>
      <point x="339" y="15" type="line"/>
      <point x="476" y="26"/>
      <point x="564" y="106"/>
      <point x="564" y="223" type="curve" smooth="yes"/>
      <point x="564" y="327"/>
      <point x="492" y="383"/>
      <point x="339" y="419" type="curve"/>
      <point x="339" y="551" type="line"/>
      <point x="381" y="542"/>
      <point x="423" y="523"/>
      <point x="465" y="491" type="curve"/>
      <point x="546" y="606" type="line"/>
      <point x="492" y="648"/>
      <point x="417" y="676"/>
      <point x="339" y="685" type="curve"/>
      <point x="339" y="768" type="line"/>
      <point x="261" y="768" type="line"/>
      <point x="261" y="686" type="line"/>
      <point x="125" y="676"/>
      <point x="43" y="600"/>
      <point x="43" y="482" type="curve" smooth="yes"/>
      <point x="43" y="379"/>
      <point x="120" y="318"/>
      <point x="261" y="291" type="curve"/>
      <point x="261" y="150" type="line"/>
      <point x="219" y="159"/>
      <point x="174" y="180"/>
      <point x="114" y="220" type="curve"/>
      <point x="36" y="102" type="line"/>
      <point x="109" y="51"/>
      <point x="182" y="24"/>
      <point x="261" y="16" type="curve"/>
    </contour>
    <contour>
      <point x="191" y="494" type="curve" smooth="yes"/>
      <point x="191" y="527"/>
      <point x="218" y="549"/>
      <point x="261" y="555" type="curve"/>
      <point x="261" y="434" type="line"/>
      <point x="211" y="448"/>
      <point x="191" y="466"/>
    </contour>
    <contour>
      <point x="409" y="210" type="curve" smooth="yes"/>
      <point x="409" y="178"/>
      <point x="382" y="154"/>
      <point x="339" y="147" type="curve"/>
      <point x="339" y="276" type="line"/>
      <point x="389" y="261"/>
      <point x="409" y="241"/>
    </contour>
  </outline>
</glyph>
<glyph name="ampersand" format="2">
  <advance width="600"/>
  <unicode hex="0026"/>
  <outline>
    <contour>
      <point x="246" y="-11" type="curve" smooth="yes"/>
      <point x="316" y="-11"/>
      <point x="376" y="10"/>
      <point x="426" y="51" type="curve"/>
      <point x="450" y="29"/>
      <point x="478" y="7"/>
      <point x="512" y="-19" type="curve"/>
      <point x="605" y="81" type="line"/>
      <point x="583" y="97"/>
      <point x="559" y="116"/>
      <point x="511" y="157" type="curve"/>
      <point x="540" y="209"/>
      <point x="563" y="273"/>
      <point x="581" y="351" type="curve"/>
      <point x="453" y="372" type="line"/>
      <point x="443" y="322"/>
      <point x="430" y="281"/>
      <point x="416" y="246" type="curve"/>
      <point x="375" y="286"/>
      <point x="339" y="323"/>
      <point x="312" y="353" type="curve"/>
      <point x="412" y="414"/>
      <point x="454" y="472"/>
      <point x="454" y="548" type="curve" smooth="yes"/>
      <point x="454" y="641"/>
      <point x="374" y="711"/>
      <point x="267" y="711" type="curve" smooth="yes"/>
      <point x="154" y="711"/>
      <point x="70" y="635"/>
      <point x="70" y="533" type="curve" smooth="yes"/>
      <point x="70" y="477"/>
      <point x="85" y="433"/>
      <point x="125" y="375" type="curve"/>
      <point x="51" y="323"/>
      <point x="16" y="264"/>
      <point x="16" y="189" type="curve" smooth="yes"/>
      <point x="16" y="69"/>
      <point x="108" y="-11"/>
    </contour>
    <contour>
      <point x="203" y="535" type="curve" smooth="yes"/>
      <point x="203" y="576"/>
      <point x="227" y="602"/>
      <point x="263" y="602" type="curve" smooth="yes"/>
      <point x="296" y="602"/>
      <point x="321" y="577"/>
      <point x="321" y="544" type="curve" smooth="yes"/>
      <point x="321" y="507"/>
      <point x="297" y="478"/>
      <point x="239" y="442" type="curve"/>
      <point x="213" y="479"/>
      <point x="203" y="505"/>
    </contour>
    <contour>
      <point x="153" y="200" type="curve" smooth="yes"/>
      <point x="153" y="229"/>
      <point x="168" y="256"/>
      <point x="200" y="282" type="curve"/>
      <point x="246" y="229"/>
      <point x="293" y="178"/>
      <point x="337" y="134" type="curve"/>
      <point x="313" y="115"/>
      <point x="285" y="105"/>
      <point x="256" y="105" type="curve" smooth="yes"/>
      <point x="192" y="105"/>
      <point x="153" y="141"/>
    </contour>
  </outline>
</glyph>
<glyph name="asterisk" format="2">
  <advance width="600"/>
  <unicode hex="002A"/>
  <outline>
    <contour>
      <point x="250" y="306" type="line"/>
      <point x="348" y="306" type="line"/>
      <point x="346" y="412" type="line"/>
      <point x="440" y="351" type="line"/>
      <point x="495" y="438" type="line"/>
      <point x="391" y="501" type="line"/>
      <point x="497" y="567" type="line"/>
      <point x="442" y="652" type="line"/>
      <point x="346" y="589" type="line"/>
      <point x="348" y="700" type="line"/>
      <point x="250" y="700" type="line"/>
      <point x="252" y="590" type="line"/>
      <point x="157" y="652" type="line"/>
      <point x="103" y="567" type="line"/>
      <point x="208" y="501" type="line"/>
      <point x="105" y="438" type="line"/>
      <point x="158" y="351" type="line"/>
      <point x="252" y="412" type="line"/>
    </contour>
  </outline>
</glyph>
<glyph name="plus" format="2">
  <advance width="600"/>
  <unicode hex="002B"/>
  <outline>
    <contour>
      <point x="239" y="123" type="line"/>
      <point x="363" y="123" type="line"/>
      <point x="363" y="299" type="line"/>
      <point x="525" y="299" type="line"/>
      <point x="525" y="419" type="line"/>
      <point x="363" y="419" type="line"/>
      <point x="363" y="591" type="line"/>
      <point x="239" y="591" type="line"/>
      <point x="239" y="419" type="line"/>
      <point x="75" y="419" type="line"/>
      <point x="75" y="299" type="line"/>
      <point x="239" y="299" type="line"/>
    </contour>
  </outline>
</glyph>
<glyph name="comma" format="2">
  <advance width="600"/>
  <unicode hex="002C"/>
  <outline>
    <contour>
      <point x="183" y="-177" type="line"/>
      <point x="299" y="-177" type="line"/>
      <point x="427" y="127" type="line"/>
      <point x="248" y="127" type="line"/>
    </contour>
  </outline>
</glyph>
<glyph name="hyphen" format="2">
  <advance width="600"/>
  <unicode hex="002D"/>
  <outline>
    <contour>
      <point x="116" y="219" type="line"/>
      <point x="484" y="219" type="line"/>
      <point x="484" y="354" type="line"/>
      <point x="116" y="354" type="line"/>
    </contour>
  </outline>
</glyph>
<glyph name="zero" format="2">
  <advance width="600"/>
  <unicode hex="0030"/>
  <outline>
    <contour>
      <point x="300" y="-11" type="curve" smooth="yes"/>
      <point x="464" y="-11"/>
      <point x="573" y="123"/>
      <point x="573" y="350" type="curve" smooth="yes"/>
      <point x="573" y="577"/>
      <point x="464" y="711"/>
      <point x="300" y="711" type="curve" smooth="yes"/>
      <point x="136" y="711"/>
      <point x="27" y="577"/>
      <point x="27" y="350" type="curve" smooth="yes"/>
      <point x="27" y="123"/>
      <point x="136" y="-11"/>
    </contour>
    <contour>
      <point x="180" y="350" type="curve" smooth="yes"/>
      <point x="180" y="488"/>
      <point x="226" y="575"/>
      <point x="300" y="575" type="curve" smooth="yes"/>
      <point x="324" y="575"/>
      <point x="345" y="566"/>
      <point x="362" y="549" type="curve"/>
      <point x="192" y="240" type="line"/>
      <point x="184" y="271"/>
      <point x="180" y="308"/>
    </contour>
    <contour>
      <point x="300" y="125" type="curve" smooth="yes"/>
      <point x="276" y="125"/>
      <point x="255" y="134"/>
      <point x="238" y="151" type="curve"/>
      <point x="408" y="461" type="line"/>
      <point x="416" y="430"/>
      <point x="420" y="392"/>
      <point x="420" y="350" type="curve" smooth="yes"/>
      <point x="420" y="212"/>
      <point x="374" y="125"/>
    </contour>
  </outline>
</glyph>
<glyph name="one" format="2">
  <advance width="600"/>
  <unicode hex="0031"/>
  <guideline x="52" y="176" angle="90" identifier="zWHZDg1UEt"/>
  <outline>
    <contour>
      <point x="52" y="0" type="line"/>
      <point x="555" y="0" type="line"/>
      <point x="555" y="131" type="line"/>
      <point x="383" y="131" type="line"/>
      <point x="383" y="700" type="line"/>
      <point x="286" y="700" type="line"/>
      <point x="52" y="603" type="line"/>
      <point x="52" y="467" type="line"/>
      <point x="229" y="540" type="line"/>
      <point x="229" y="131" type="line"/>
      <point x="52" y="131" type="line"/>
    </contour>
  </outline>
</glyph>
<glyph name="three" format="2">
  <advance width="600"/>
  <unicode hex="0033"/>
  <outline>
    <contour>
      <point x="290" y="-11" type="curve" smooth="yes"/>
      <point x="453" y="-11"/>
      <point x="570" y="76"/>
      <point x="570" y="197" type="curve" smooth="yes"/>
      <point x="570" y="274"/>
      <point x="511" y="331"/>
      <point x="419" y="349" type="curve"/>
      <point x="498" y="372"/>
      <point x="552" y="433"/>
      <point x="552" y="509" type="curve" smooth="yes"/>
      <point x="552" y="628"/>
      <point x="446" y="711"/>
      <point x="293" y="711" type="curve" smooth="yes"/>
      <point x="188" y="711"/>
      <point x="85" y="665"/>
      <point x="19" y="589" type="curve"/>
      <point x="124" y="494" type="line"/>
      <point x="179" y="554"/>
      <point x="219" y="574"/>
      <point x="287" y="574" type="curve" smooth="yes"/>
      <point x="350" y="574"/>
      <point x="397" y="538"/>
      <point x="397" y="488" type="curve" smooth="yes"/>
      <point x="397" y="439"/>
      <point x="363" y="410"/>
      <point x="306" y="410" type="curve" smooth="yes"/>
      <point x="232" y="410" type="line"/>
      <point x="232" y="283" type="line"/>
      <point x="322" y="283" type="line" smooth="yes"/>
      <point x="378" y="283"/>
      <point x="414" y="255"/>
      <point x="414" y="210" type="curve" smooth="yes"/>
      <point x="414" y="158"/>
      <point x="364" y="124"/>
      <point x="288" y="124" type="curve" smooth="yes"/>
      <point x="211" y="124"/>
      <point x="170" y="142"/>
      <point x="118" y="198" type="curve"/>
      <point x="14" y="102" type="line"/>
      <point x="76" y="31"/>
      <point x="178" y="-11"/>
    </contour>
  </outline>
</glyph>
<glyph name="four" format="2">
  <advance width="600"/>
  <unicode hex="0034"/>
  <outline>
    <contour>
      <point x="363" y="0" type="line"/>
      <point x="512" y="0" type="line"/>
      <point x="512" y="157" type="line"/>
      <point x="590" y="157" type="line"/>
      <point x="590" y="288" type="line"/>
      <point x="512" y="288" type="line"/>
      <point x="512" y="700" type="line"/>
      <point x="342" y="700" type="line"/>
      <point x="9" y="284" type="line"/>
      <point x="9" y="157" type="line"/>
      <point x="363" y="157" type="line"/>
    </contour>
    <contour>
      <point x="174" y="288" type="line"/>
      <point x="363" y="522" type="line"/>
      <point x="363" y="288" type="line"/>
    </contour>
  </outline>
</glyph>
<glyph name="six" format="2">
  <advance width="600"/>
  <unicode hex="0036"/>
  <outline>
    <contour>
      <point x="325" y="-11" type="curve" smooth="yes"/>
      <point x="474" y="-11"/>
      <point x="584" y="88"/>
      <point x="584" y="221" type="curve" smooth="yes"/>
      <point x="584" y="345"/>
      <point x="487" y="433"/>
      <point x="349" y="433" type="curve" smooth="yes"/>
      <point x="279" y="433"/>
      <point x="214" y="397"/>
      <point x="170" y="334" type="curve"/>
      <point x="170" y="487"/>
      <point x="231" y="573"/>
      <point x="345" y="573" type="curve" smooth="yes"/>
      <point x="401" y="573"/>
      <point x="442" y="558"/>
      <point x="481" y="525" type="curve"/>
      <point x="570" y="635" type="line"/>
      <point x="521" y="681"/>
      <point x="435" y="711"/>
      <point x="357" y="711" type="curve" smooth="yes"/>
      <point x="153" y="711"/>
      <point x="17" y="562"/>
      <point x="17" y="339" type="curve" smooth="yes"/>
      <point x="17" y="130"/>
      <point x="141" y="-11"/>
    </contour>
    <contour>
      <point x="323" y="313" type="curve" smooth="yes"/>
      <point x="388" y="313"/>
      <point x="433" y="274"/>
      <point x="433" y="218" type="curve" smooth="yes"/>
      <point x="433" y="162"/>
      <point x="383" y="121"/>
      <point x="317" y="121" type="curve" smooth="yes"/>
      <point x="250" y="121"/>
      <point x="199" y="172"/>
      <point x="179" y="252" type="curve"/>
      <point x="216" y="291"/>
      <point x="266" y="313"/>
    </contour>
  </outline>
</glyph>
<glyph name="seven" format="2">
  <advance width="600"/>
  <unicode hex="0037"/>
  <outline>
    <contour>
      <point x="106" y="0" type="line"/>
      <point x="291" y="0" type="line"/>
      <point x="573" y="585" type="line"/>
      <point x="573" y="700" type="line"/>
      <point x="26" y="700" type="line"/>
      <point x="26" y="564" type="line"/>
      <point x="406" y="564" type="line"/>
    </contour>
  </outline>
</glyph>
<glyph name="eight" format="2">
  <advance width="600"/>
  <unicode hex="0038"/>
  <outline>
    <contour>
      <point x="300" y="-11" type="curve" smooth="yes"/>
      <point x="462" y="-11"/>
      <point x="573" y="74"/>
      <point x="573" y="198" type="curve" smooth="yes"/>
      <point x="573" y="272"/>
      <point x="519" y="334"/>
      <point x="441" y="359" type="curve"/>
      <point x="508" y="386"/>
      <point x="553" y="442"/>
      <point x="553" y="508" type="curve" smooth="yes"/>
      <point x="553" y="624"/>
      <point x="444" y="711"/>
      <point x="300" y="711" type="curve"/>
      <point x="156" y="711"/>
      <point x="47" y="624"/>
      <point x="47" y="508" type="curve" smooth="yes"/>
      <point x="47" y="442"/>
      <point x="92" y="386"/>
      <point x="159" y="359" type="curve"/>
      <point x="81" y="334"/>
      <point x="27" y="272"/>
      <point x="27" y="198" type="curve" smooth="yes"/>
      <point x="27" y="74"/>
      <point x="138" y="-11"/>
    </contour>
    <contour>
      <point x="300" y="411" type="curve"/>
      <point x="242" y="411"/>
      <point x="199" y="447"/>
      <point x="199" y="497" type="curve"/>
      <point x="199" y="547"/>
      <point x="242" y="583"/>
      <point x="300" y="583" type="curve"/>
      <point x="358" y="583"/>
      <point x="401" y="547"/>
      <point x="401" y="497" type="curve"/>
      <point x="401" y="447"/>
      <point x="358" y="411"/>
    </contour>
    <contour>
      <point x="300" y="118" type="curve" smooth="yes"/>
      <point x="231" y="118"/>
      <point x="183" y="156"/>
      <point x="183" y="209" type="curve" smooth="yes"/>
      <point x="183" y="262"/>
      <point x="231" y="300"/>
      <point x="300" y="300" type="curve" smooth="yes"/>
      <point x="369" y="300"/>
      <point x="417" y="262"/>
      <point x="417" y="209" type="curve" smooth="yes"/>
      <point x="417" y="156"/>
      <point x="369" y="118"/>
    </contour>
  </outline>
</glyph>
<glyph name="at" format="2">
  <advance width="600"/>
  <unicode hex="0040"/>
  <outline>
    <contour>
      <point x="270" y="45" type="curve" smooth="yes"/>
      <point x="301" y="45"/>
      <point x="333" y="59"/>
      <point x="359" y="83" type="curve"/>
      <point x="375" y="61"/>
      <point x="402" y="49"/>
      <point x="436" y="49" type="curve" smooth="yes"/>
      <point x="522" y="49"/>
      <point x="587" y="135"/>
      <point x="587" y="268" type="curve" smooth="yes"/>
      <point x="587" y="453"/>
      <point x="468" y="584"/>
      <point x="309" y="584" type="curve" smooth="yes"/>
      <point x="136" y="584"/>
      <point x="13" y="423"/>
      <point x="13" y="220" type="curve" smooth="yes"/>
      <point x="13" y="17"/>
      <point x="136" y="-144"/>
      <point x="309" y="-144" type="curve" smooth="yes"/>
      <point x="374" y="-144"/>
      <point x="441" y="-128"/>
      <point x="496" y="-92" type="curve"/>
      <point x="469" y="-41" type="line"/>
      <point x="423" y="-70"/>
      <point x="360" y="-87"/>
      <point x="309" y="-87" type="curve" smooth="yes"/>
      <point x="165" y="-87"/>
      <point x="72" y="50"/>
      <point x="72" y="220" type="curve" smooth="yes"/>
      <point x="72" y="390"/>
      <point x="165" y="527"/>
      <point x="309" y="527" type="curve" smooth="yes"/>
      <point x="439" y="527"/>
      <point x="528" y="426"/>
      <point x="528" y="266" type="curve" smooth="yes"/>
      <point x="528" y="166"/>
      <point x="491" y="108"/>
      <point x="451" y="108" type="curve" smooth="yes"/>
      <point x="435" y="108"/>
      <point x="428" y="117"/>
      <point x="431" y="135" type="curve" smooth="yes"/>
      <point x="468" y="371" type="line"/>
      <point x="377" y="371" type="line"/>
      <point x="374" y="351" type="line"/>
      <point x="352" y="372"/>
      <point x="323" y="383"/>
      <point x="290" y="383" type="curve" smooth="yes"/>
      <point x="198" y="383"/>
      <point x="133" y="306"/>
      <point x="133" y="200" type="curve" smooth="yes"/>
      <point x="133" y="111"/>
      <point x="192" y="45"/>
    </contour>
    <contour>
      <point x="287" y="126" type="curve" smooth="yes"/>
      <point x="247" y="126"/>
      <point x="219" y="158"/>
      <point x="219" y="209" type="curve" smooth="yes"/>
      <point x="219" y="261"/>
      <point x="254" y="300"/>
      <point x="296" y="300" type="curve" smooth="yes"/>
      <point x="326" y="300"/>
      <point x="347" y="286"/>
      <point x="361" y="263" type="curve"/>
      <point x="345" y="159" type="line" smooth="yes"/>
      <point x="344" y="155"/>
      <point x="344" y="152"/>
      <point x="344" y="148" type="curve"/>
      <point x="326" y="133"/>
      <point x="307" y="126"/>
    </contour>
  </outline>
</glyph>
<glyph name="A" format="2">
  <advance width="600"/>
  <unicode hex="0041"/>
  <anchor x="300" y="700" name="top"/>
  <anchor x="599" y="0" name="bottom"/>
  <outline>
    <contour>
      <point x="1" y="0" type="line"/>
      <point x="165" y="0" type="line"/>
      <point x="201" y="137" type="line"/>
      <point x="393" y="137" type="line"/>
      <point x="428" y="0" type="line"/>
      <point x="599" y="0" type="line"/>
      <point x="398" y="700" type="line"/>
      <point x="202" y="700" type="line"/>
    </contour>
    <contour>
      <point x="236" y="270" type="line"/>
      <point x="298" y="509" type="line"/>
      <point x="359" y="270" type="line"/>
    </contour>
  </outline>
</glyph>
<glyph name="B" format="2">
  <advance width="600"/>
  <unicode hex="0042"/>
  <outline>
    <contour>
      <point x="72" y="0" type="line"/>
      <point x="337" y="0" type="line" smooth="yes"/>
      <point x="476" y="0"/>
      <point x="574" y="81"/>
      <point x="574" y="196" type="curve" smooth="yes"/>
      <point x="574" y="268"/>
      <point x="525" y="328"/>
      <point x="451" y="357" type="curve"/>
      <point x="513" y="389"/>
      <point x="554" y="444"/>
      <point x="554" y="509" type="curve" smooth="yes"/>
      <point x="554" y="620"/>
      <point x="457" y="700"/>
      <point x="321" y="700" type="curve" smooth="yes"/>
      <point x="72" y="700" type="line"/>
    </contour>
    <contour>
      <point x="240" y="418" type="line"/>
      <point x="240" y="566" type="line"/>
      <point x="302" y="566" type="line" smooth="yes"/>
      <point x="352" y="566"/>
      <point x="384" y="537"/>
      <point x="384" y="492" type="curve" smooth="yes"/>
      <point x="384" y="448"/>
      <point x="351" y="418"/>
      <point x="302" y="418" type="curve" smooth="yes"/>
    </contour>
    <contour>
      <point x="240" y="134" type="line"/>
      <point x="240" y="292" type="line"/>
      <point x="316" y="292" type="line" smooth="yes"/>
      <point x="369" y="292"/>
      <point x="403" y="262"/>
      <point x="403" y="213" type="curve" smooth="yes"/>
      <point x="403" y="165"/>
      <point x="369" y="134"/>
      <point x="316" y="134" type="curve" smooth="yes"/>
    </contour>
  </outline>
</glyph>
<glyph name="E" format="2">
  <advance width="600"/>
  <unicode hex="0045"/>
  <anchor x="330" y="700" name="top"/>
  <anchor x="562" y="0" name="bottom"/>
  <outline>
    <contour>
      <point x="74" y="0" type="line"/>
      <point x="562" y="0" type="line"/>
      <point x="562" y="144" type="line"/>
      <point x="246" y="144" type="line"/>
      <point x="246" y="283" type="line"/>
      <point x="443" y="283" type="line"/>
      <point x="443" y="423" type="line"/>
      <point x="246" y="423" type="line"/>
      <point x="246" y="556" type="line"/>
      <point x="558" y="556" type="line"/>
      <point x="558" y="700" type="line"/>
      <point x="74" y="700" type="line"/>
    </contour>
  </outline>
</glyph>
<glyph name="G" format="2">
  <advance width="600"/>
  <unicode hex="0047"/>
  <anchor x="307" y="700" name="top"/>
  <anchor x="309" y="0" name="bottom"/>
  <outline>
    <contour>
      <point x="308" y="-11" type="curve" smooth="yes"/>
      <point x="470" y="-11"/>
      <point x="574" y="122"/>
      <point x="574" y="353" type="curve" smooth="yes"/>
      <point x="574" y="402" type="line"/>
      <point x="306" y="402" type="line"/>
      <point x="306" y="258" type="line"/>
      <point x="417" y="258" type="line"/>
      <point x="408" y="191"/>
      <point x="367" y="142"/>
      <point x="316" y="142" type="curve" smooth="yes"/>
      <point x="248" y="142"/>
      <point x="199" y="201"/>
      <point x="199" y="350" type="curve" smooth="yes"/>
      <point x="199" y="499"/>
      <point x="248" y="558"/>
      <point x="312" y="558" type="curve" smooth="yes"/>
      <point x="354" y="558"/>
      <point x="392" y="530"/>
      <point x="411" y="473" type="curve"/>
      <point x="557" y="522" type="line"/>
      <point x="513" y="643"/>
      <point x="418" y="711"/>
      <point x="307" y="711" type="curve" smooth="yes"/>
      <point x="149" y="711"/>
      <point x="26" y="582"/>
      <point x="26" y="350" type="curve" smooth="yes"/>
      <point x="26" y="118"/>
      <point x="149" y="-11"/>
    </contour>
  </outline>
</glyph>
<glyph name="H" format="2">
  <advance width="600"/>
  <unicode hex="0048"/>
  <anchor x="300" y="700" name="top"/>
  <outline>
    <contour>
      <point x="46" y="0" type="line"/>
      <point x="218" y="0" type="line"/>
      <point x="218" y="277" type="line"/>
      <point x="382" y="277" type="line"/>
      <point x="382" y="0" type="line"/>
      <point x="554" y="0" type="line"/>
      <point x="554" y="700" type="line"/>
      <point x="382" y="700" type="line"/>
      <point x="382" y="428" type="line"/>
      <point x="218" y="428" type="line"/>
      <point x="218" y="700" type="line"/>
      <point x="46" y="700" type="line"/>
    </contour>
  </outline>
</glyph>
<glyph name="I" format="2">
  <advance width="600"/>
  <unicode hex="0049"/>
  <anchor x="300" y="700" name="top"/>
  <anchor x="556" y="0" name="bottom"/>
  <outline>
    <contour>
      <point x="44" y="0" type="line"/>
      <point x="556" y="0" type="line"/>
      <point x="556" y="144" type="line"/>
      <point x="386" y="144" type="line"/>
      <point x="386" y="556" type="line"/>
      <point x="556" y="556" type="line"/>
      <point x="556" y="700" type="line"/>
      <point x="44" y="700" type="line"/>
      <point x="44" y="556" type="line"/>
      <point x="214" y="556" type="line"/>
      <point x="214" y="144" type="line"/>
      <point x="44" y="144" type="line"/>
    </contour>
  </outline>
</glyph>
<glyph name="K" format="2">
  <advance width="600"/>
  <unicode hex="004B"/>
  <anchor x="298" y="0" name="bottom"/>
  <outline>
    <contour>
      <point x="37" y="0" type="line"/>
      <point x="209" y="0" type="line"/>
      <point x="209" y="305" type="line"/>
      <point x="398" y="0" type="line"/>
      <point x="603" y="0" type="line"/>
      <point x="351" y="368" type="line"/>
      <point x="585" y="700" type="line"/>
      <point x="400" y="700" type="line"/>
      <point x="209" y="407" type="line"/>
      <point x="209" y="700" type="line"/>
      <point x="37" y="700" type="line"/>
    </contour>
  </outline>
</glyph>
<glyph name="L" format="2">
  <advance width="600"/>
  <unicode hex="004C"/>
  <anchor x="154" y="700" name="top"/>
  <anchor x="338" y="0" name="bottom"/>
  <outline>
    <contour>
      <point x="74" y="0" type="line"/>
      <point x="562" y="0" type="line"/>
      <point x="562" y="144" type="line"/>
      <point x="246" y="144" type="line"/>
      <point x="246" y="700" type="line"/>
      <point x="74" y="700" type="line"/>
    </contour>
  </outline>
</glyph>
<glyph name="M" format="2">
  <advance width="600"/>
  <unicode hex="004D"/>
  <outline>
    <contour>
      <point x="40" y="0" type="line"/>
      <point x="183" y="0" type="line"/>
      <point x="184" y="456" type="line"/>
      <point x="299" y="169" type="line"/>
      <point x="415" y="456" type="line"/>
      <point x="415" y="0" type="line"/>
      <point x="560" y="0" type="line"/>
      <point x="560" y="700" type="line"/>
      <point x="379" y="700" type="line"/>
      <point x="301" y="484" type="line"/>
      <point x="221" y="700" type="line"/>
      <point x="40" y="700" type="line"/>
    </contour>
  </outline>
</glyph>
<glyph name="N" format="2">
  <advance width="600"/>
  <unicode hex="004E"/>
  <anchor x="300" y="700" name="top"/>
  <anchor x="300" y="0" name="bottom"/>
  <outline>
    <contour>
      <point x="47" y="0" type="line"/>
      <point x="189" y="0" type="line"/>
      <point x="187" y="409" type="line"/>
      <point x="401" y="0" type="line"/>
      <point x="553" y="0" type="line"/>
      <point x="553" y="700" type="line"/>
      <point x="411" y="700" type="line"/>
      <point x="413" y="306" type="line"/>
      <point x="209" y="700" type="line"/>
      <point x="47" y="700" type="line"/>
    </contour>
  </outline>
</glyph>
<glyph name="O" format="2">
  <advance width="600"/>
  <unicode hex="004F"/>
  <anchor x="300" y="700" name="top"/>
  <outline>
    <contour>
      <point x="300" y="-11" type="curve" smooth="yes"/>
      <point x="458" y="-11"/>
      <point x="582" y="118"/>
      <point x="582" y="350" type="curve" smooth="yes"/>
      <point x="582" y="582"/>
      <point x="458" y="711"/>
      <point x="300" y="711" type="curve" smooth="yes"/>
      <point x="142" y="711"/>
      <point x="18" y="582"/>
      <point x="18" y="350" type="curve" smooth="yes"/>
      <point x="18" y="118"/>
      <point x="142" y="-11"/>
    </contour>
    <contour>
      <point x="300" y="142" type="curve" smooth="yes"/>
      <point x="238" y="142"/>
      <point x="191" y="206"/>
      <point x="191" y="350" type="curve" smooth="yes"/>
      <point x="191" y="494"/>
      <point x="238" y="558"/>
      <point x="300" y="558" type="curve" smooth="yes"/>
      <point x="362" y="558"/>
      <point x="409" y="494"/>
      <point x="409" y="350" type="curve" smooth="yes"/>
      <point x="409" y="206"/>
      <point x="362" y="142"/>
    </contour>
  </outline>
</glyph>
<glyph name="P" format="2">
  <advance width="600"/>
  <unicode hex="0050"/>
  <outline>
    <contour>
      <point x="57" y="0" type="line"/>
      <point x="229" y="0" type="line"/>
      <point x="229" y="244" type="line"/>
      <point x="324" y="244" type="line" smooth="yes"/>
      <point x="473" y="244"/>
      <point x="571" y="342"/>
      <point x="571" y="469" type="curve" smooth="yes"/>
      <point x="571" y="603"/>
      <point x="473" y="700"/>
      <point x="324" y="700" type="curve" smooth="yes"/>
      <point x="57" y="700" type="line"/>
    </contour>
    <contour>
      <point x="229" y="382" type="line"/>
      <point x="229" y="558" type="line"/>
      <point x="294" y="558" type="line" smooth="yes"/>
      <point x="363" y="558"/>
      <point x="397" y="520"/>
      <point x="397" y="470" type="curve" smooth="yes"/>
      <point x="397" y="420"/>
      <point x="363" y="382"/>
      <point x="294" y="382" type="curve" smooth="yes"/>
    </contour>
  </outline>
</glyph>
<glyph name="T" format="2">
  <advance width="600"/>
  <unicode hex="0054"/>
  <anchor x="300" y="700" name="top"/>
  <anchor x="300" y="0" name="bottom"/>
  <outline>
    <contour>
      <point x="214" y="0" type="line"/>
      <point x="386" y="0" type="line"/>
      <point x="386" y="556" type="line"/>
      <point x="586" y="556" type="line"/>
      <point x="586" y="700" type="line"/>
      <point x="14" y="700" type="line"/>
      <point x="14" y="556" type="line"/>
      <point x="214" y="556" type="line"/>
    </contour>
  </outline>
</glyph>
<glyph name="U" format="2">
  <advance width="600"/>
  <unicode hex="0055"/>
  <anchor x="300" y="700" name="top"/>
  <anchor x="383" y="0" name="bottom"/>
  <outline>
    <contour>
      <point x="300" y="-11" type="curve" smooth="yes"/>
      <point x="457" y="-11"/>
      <point x="558" y="90"/>
      <point x="558" y="247" type="curve" smooth="yes"/>
      <point x="558" y="700" type="line"/>
      <point x="386" y="700" type="line"/>
      <point x="386" y="247" type="line" smooth="yes"/>
      <point x="386" y="184"/>
      <point x="353" y="143"/>
      <point x="300" y="143" type="curve" smooth="yes"/>
      <point x="247" y="143"/>
      <point x="214" y="184"/>
      <point x="214" y="247" type="curve"/>
      <point x="214" y="700" type="line"/>
      <point x="42" y="700" type="line"/>
      <point x="42" y="247" type="line"/>
      <point x="42" y="90"/>
      <point x="143" y="-11"/>
    </contour>
  </outline>
</glyph>
<glyph name="V" format="2">
  <advance width="600"/>
  <unicode hex="0056"/>
  <outline>
    <contour>
      <point x="202" y="0" type="line"/>
      <point x="398" y="0" type="line"/>
      <point x="599" y="700" type="line"/>
      <point x="435" y="700" type="line"/>
      <point x="302" y="191" type="line"/>
      <point x="172" y="700" type="line"/>
      <point x="1" y="700" type="line"/>
    </contour>
  </outline>
</glyph>
<glyph name="W" format="2">
  <advance width="600"/>
  <unicode hex="0057"/>
  <anchor x="300" y="700" name="top"/>
  <outline>
    <contour>
      <point x="86" y="0" type="line"/>
      <point x="235" y="0" type="line"/>
      <point x="301" y="395" type="line"/>
      <point x="366" y="0" type="line"/>
      <point x="515" y="0" type="line"/>
      <point x="592" y="700" type="line"/>
      <point x="451" y="700" type="line"/>
      <point x="425" y="339" type="line"/>
      <point x="360" y="700" type="line"/>
      <point x="245" y="700" type="line"/>
      <point x="181" y="334" type="line"/>
      <point x="154" y="700" type="line"/>
      <point x="8" y="700" type="line"/>
    </contour>
  </outline>
</glyph>
<glyph name="X" format="2">
  <advance width="600"/>
  <unicode hex="0058"/>
  <outline>
    <contour>
      <point x="0" y="0" type="line"/>
      <point x="178" y="0" type="line"/>
      <point x="296" y="214" type="line"/>
      <point x="414" y="0" type="line"/>
      <point x="600" y="0" type="line"/>
      <point x="389" y="364" type="line"/>
      <point x="583" y="700" type="line"/>
      <point x="405" y="700" type="line"/>
      <point x="303" y="515" type="line"/>
      <point x="202" y="700" type="line"/>
      <point x="17" y="700" type="line"/>
      <point x="210" y="365" type="line"/>
    </contour>
  </outline>
</glyph>
<glyph name="Z" format="2">
  <advance width="600"/>
  <unicode hex="005A"/>
  <anchor x="291" y="700" name="top"/>
  <outline>
    <contour>
      <point x="40" y="0" type="line"/>
      <point x="560" y="0" type="line"/>
      <point x="560" y="144" type="line"/>
      <point x="262" y="142" type="line"/>
      <point x="557" y="588" type="line"/>
      <point x="557" y="700" type="line"/>
      <point x="42" y="700" type="line"/>
      <point x="42" y="556" type="line"/>
      <point x="337" y="559" type="line"/>
      <point x="40" y="112" type="line"/>
    </contour>
  </outline>
</glyph>
<glyph name="bracketleft" format="2">
  <advance width="600"/>
  <unicode hex="005B"/>
  <outline>
    <contour>
      <point x="145" y="-215" type="line"/>
      <point x="498" y="-215" type="line"/>
      <point x="498" y="-89" type="line"/>
      <point x="291" y="-89" type="line"/>
      <point x="291" y="574" type="line"/>
      <point x="498" y="574" type="line"/>
      <point x="498" y="700" type="line"/>
      <point x="145" y="700" type="line"/>
    </contour>
  </outline>
</glyph>
<glyph name="backslash" format="2">
  <advance width="600"/>
  <unicode hex="005C"/>
  <outline>
    <contour>
      <point x="463" y="-209" type="line"/>
      <point x="625" y="-209" type="line"/>
      <point x="223" y="700" type="line"/>
      <point x="60" y="700" type="line"/>
    </contour>
  </outline>
</glyph>
<glyph name="grave" format="2">
  <advance width="600"/>
  <unicode hex="0060"/>
  <anchor x="300" y="516" name="_top"/>
  <outline>
    <contour>
      <point x="248" y="601" type="line"/>
      <point x="396" y="601" type="line"/>
      <point x="258" y="747" type="line"/>
      <point x="56" y="747" type="line"/>
    </contour>
  </outline>
</glyph>
<glyph name="a" format="2">
  <advance width="600"/>
  <unicode hex="0061"/>
  <anchor x="290" y="516" name="top"/>
  <anchor x="528" y="0" name="bottom"/>
  <outline>
    <contour>
      <point x="225" y="-8" type="curve" smooth="yes"/>
      <point x="280" y="-8"/>
      <point x="322" y="9"/>
      <point x="368" y="49" type="curve"/>
      <point x="368" y="0" type="line"/>
      <point x="528" y="0" type="line"/>
      <point x="528" y="330" type="line" smooth="yes"/>
      <point x="528" y="453"/>
      <point x="445" y="524"/>
      <point x="302" y="524" type="curve" smooth="yes"/>
      <point x="226" y="524"/>
      <point x="149" y="506"/>
      <point x="63" y="468" type="curve"/>
      <point x="121" y="353" type="line"/>
      <point x="181" y="378"/>
      <point x="227" y="391"/>
      <point x="266" y="391" type="curve" smooth="yes"/>
      <point x="335" y="391"/>
      <point x="368" y="366"/>
      <point x="368" y="316" type="curve" smooth="yes"/>
      <point x="368" y="272" type="line"/>
      <point x="322" y="290"/>
      <point x="285" y="298"/>
      <point x="248" y="298" type="curve" smooth="yes"/>
      <point x="121" y="298"/>
      <point x="47" y="243"/>
      <point x="47" y="148" type="curve" smooth="yes"/>
      <point x="47" y="56"/>
      <point x="120" y="-8"/>
    </contour>
    <contour>
      <point x="196" y="151" type="curve" smooth="yes"/>
      <point x="196" y="184"/>
      <point x="227" y="202"/>
      <point x="279" y="202" type="curve" smooth="yes"/>
      <point x="308" y="202"/>
      <point x="338" y="197"/>
      <point x="368" y="189" type="curve"/>
      <point x="368" y="128" type="line"/>
      <point x="341" y="109"/>
      <point x="309" y="99"/>
      <point x="275" y="99" type="curve"/>
      <point x="226" y="99"/>
      <point x="196" y="118"/>
    </contour>
  </outline>
</glyph>
<glyph name="e" format="2">
  <advance width="600"/>
  <unicode hex="0065"/>
  <anchor x="306" y="516" name="top"/>
  <anchor x="406" y="0" name="bottom"/>
  <outline>
    <contour>
      <point x="315" y="-10" type="curve" smooth="yes"/>
      <point x="404" y="-10"/>
      <point x="473" y="13"/>
      <point x="538" y="76" type="curve"/>
      <point x="434" y="169" type="line"/>
      <point x="408" y="137"/>
      <point x="370" y="119"/>
      <point x="323" y="119" type="curve" smooth="yes"/>
      <point x="262" y="119"/>
      <point x="213" y="158"/>
      <point x="197" y="216" type="curve"/>
      <point x="567" y="216" type="line"/>
      <point x="567" y="251" type="line"/>
      <point x="567" y="411"/>
      <point x="458" y="524"/>
      <point x="303" y="524" type="curve" smooth="yes"/>
      <point x="152" y="524"/>
      <point x="38" y="408"/>
      <point x="38" y="257" type="curve" smooth="yes"/>
      <point x="38" y="107"/>
      <point x="160" y="-10"/>
    </contour>
    <contour>
      <point x="198" y="308" type="line"/>
      <point x="213" y="365"/>
      <point x="253" y="398"/>
      <point x="308" y="398" type="curve" smooth="yes"/>
      <point x="363" y="398"/>
      <point x="403" y="365"/>
      <point x="417" y="308" type="curve"/>
    </contour>
  </outline>
</glyph>
<glyph name="f" format="2">
  <advance width="600"/>
  <unicode hex="0066"/>
  <outline>
    <contour>
      <point x="190" y="0" type="line"/>
      <point x="352" y="0" type="line"/>
      <point x="352" y="391" type="line"/>
      <point x="550" y="391" type="line"/>
      <point x="550" y="516" type="line"/>
      <point x="352" y="516" type="line"/>
      <point x="352" y="550" type="line" smooth="yes"/>
      <point x="352" y="615"/>
      <point x="375" y="638"/>
      <point x="440" y="638" type="curve" smooth="yes"/>
      <point x="469" y="638"/>
      <point x="499" y="636"/>
      <point x="550" y="622" type="curve"/>
      <point x="550" y="756" type="line"/>
      <point x="514" y="766"/>
      <point x="462" y="774"/>
      <point x="423" y="774" type="curve" smooth="yes"/>
      <point x="269" y="774"/>
      <point x="190" y="704"/>
      <point x="190" y="567" type="curve" smooth="yes"/>
      <point x="190" y="516" type="line"/>
      <point x="39" y="516" type="line"/>
      <point x="39" y="391" type="line"/>
      <point x="190" y="391" type="line"/>
    </contour>
  </outline>
</glyph>
<glyph name="g" format="2">
  <advance width="600"/>
  <unicode hex="0067"/>
  <anchor x="298" y="516" name="top"/>
  <outline>
    <contour>
      <point x="284" y="-219" type="curve" smooth="yes"/>
      <point x="450" y="-219"/>
      <point x="541" y="-142"/>
      <point x="541" y="-3" type="curve" smooth="yes"/>
      <point x="541" y="516" type="line"/>
      <point x="382" y="516" type="line"/>
      <point x="382" y="465" type="line"/>
      <point x="350" y="499"/>
      <point x="307" y="519"/>
      <point x="260" y="519" type="curve"/>
      <point x="133" y="519"/>
      <point x="31" y="404"/>
      <point x="31" y="259" type="curve" smooth="yes"/>
      <point x="31" y="114"/>
      <point x="128" y="-3"/>
      <point x="248" y="-3" type="curve" smooth="yes"/>
      <point x="299" y="-3"/>
      <point x="347" y="19"/>
      <point x="380" y="54" type="curve"/>
      <point x="380" y="-1" type="line" smooth="yes"/>
      <point x="380" y="-64"/>
      <point x="345" y="-96"/>
      <point x="278" y="-96" type="curve" smooth="yes"/>
      <point x="228" y="-96"/>
      <point x="177" y="-83"/>
      <point x="120" y="-56" type="curve"/>
      <point x="70" y="-173" type="line"/>
      <point x="132" y="-203"/>
      <point x="206" y="-219"/>
    </contour>
    <contour>
      <point x="298" y="126" type="curve" smooth="yes"/>
      <point x="232" y="126"/>
      <point x="190" y="182"/>
      <point x="190" y="258" type="curve" smooth="yes"/>
      <point x="190" y="335"/>
      <point x="231" y="391"/>
      <point x="298" y="391" type="curve"/>
      <point x="329" y="391"/>
      <point x="357" y="379"/>
      <point x="380" y="358" type="curve"/>
      <point x="380" y="160" type="line"/>
      <point x="357" y="138"/>
      <point x="331" y="126"/>
    </contour>
  </outline>
</glyph>
<glyph name="h" format="2">
  <advance width="600"/>
  <unicode hex="0068"/>
  <anchor x="138" y="700" name="top"/>
  <outline>
    <contour>
      <point x="59" y="0" type="line"/>
      <point x="221" y="0" type="line"/>
      <point x="221" y="366" type="line"/>
      <point x="242" y="387"/>
      <point x="267" y="397"/>
      <point x="297" y="397" type="curve" smooth="yes"/>
      <point x="349" y="397"/>
      <point x="383" y="359"/>
      <point x="383" y="301" type="curve" smooth="yes"/>
      <point x="383" y="0" type="line"/>
      <point x="545" y="0" type="line"/>
      <point x="545" y="348" type="line" smooth="yes"/>
      <point x="545" y="451"/>
      <point x="474" y="524"/>
      <point x="374" y="524" type="curve" smooth="yes"/>
      <point x="312" y="524"/>
      <point x="260" y="497"/>
      <point x="221" y="446" type="curve"/>
      <point x="221" y="737" type="line"/>
      <point x="59" y="712" type="line"/>
    </contour>
  </outline>
</glyph>
<glyph name="i" format="2">
  <advance width="600"/>
  <unicode hex="0069"/>
  <note>
Version created Wed Nov 11 16:21:20 2020
</note>
  <anchor x="305" y="516" name="top"/>
  <anchor x="512" y="0" name="bottom"/>
  <outline>
    <contour>
      <point x="301" y="594" type="curve" smooth="yes"/>
      <point x="357" y="594"/>
      <point x="403" y="640"/>
      <point x="403" y="696" type="curve" smooth="yes"/>
      <point x="403" y="752"/>
      <point x="357" y="798"/>
      <point x="301" y="798" type="curve" smooth="yes"/>
      <point x="245" y="798"/>
      <point x="199" y="752"/>
      <point x="199" y="696" type="curve" smooth="yes"/>
      <point x="199" y="640"/>
      <point x="245" y="594"/>
    </contour>
    <contour>
      <point x="437" y="-10" type="curve" smooth="yes"/>
      <point x="481" y="-10"/>
      <point x="536" y="2"/>
      <point x="558" y="13" type="curve"/>
      <point x="558" y="144" type="line"/>
      <point x="525" y="130"/>
      <point x="499" y="126"/>
      <point x="470" y="126" type="curve" smooth="yes"/>
      <point x="408" y="126"/>
      <point x="382" y="151"/>
      <point x="382" y="209" type="curve" smooth="yes"/>
      <point x="382" y="516" type="line"/>
      <point x="42" y="516" type="line"/>
      <point x="42" y="391" type="line"/>
      <point x="220" y="391" type="line"/>
      <point x="220" y="192" type="line" smooth="yes"/>
      <point x="220" y="58"/>
      <point x="294" y="-10"/>
    </contour>
  </outline>
</glyph>
<glyph name="k" format="2">
  <advance width="600"/>
  <unicode hex="006B"/>
  <anchor x="300" y="0" name="bottom"/>
  <outline>
    <contour>
      <point x="59" y="0" type="line"/>
      <point x="221" y="0" type="line"/>
      <point x="221" y="228" type="line"/>
      <point x="393" y="0" type="line"/>
      <point x="595" y="0" type="line"/>
      <point x="370" y="285" type="line"/>
      <point x="580" y="516" type="line"/>
      <point x="401" y="516" type="line"/>
      <point x="221" y="311" type="line"/>
      <point x="221" y="737" type="line"/>
      <point x="59" y="714" type="line"/>
    </contour>
  </outline>
</glyph>
<glyph name="l" format="2">
  <advance width="600"/>
  <unicode hex="006C"/>
  <anchor x="285" y="700" name="top"/>
  <anchor x="393" y="0" name="bottom"/>
  <outline>
    <contour>
      <point x="422" y="-10" type="curve" smooth="yes"/>
      <point x="466" y="-10"/>
      <point x="521" y="2"/>
      <point x="543" y="13" type="curve"/>
      <point x="543" y="144" type="line"/>
      <point x="510" y="130"/>
      <point x="484" y="126"/>
      <point x="455" y="126" type="curve" smooth="yes"/>
      <point x="393" y="126"/>
      <point x="367" y="151"/>
      <point x="367" y="209" type="curve" smooth="yes"/>
      <point x="367" y="727" type="line"/>
      <point x="27" y="727" type="line"/>
      <point x="27" y="602" type="line"/>
      <point x="205" y="602" type="line"/>
      <point x="205" y="192" type="line" smooth="yes"/>
      <point x="205" y="58"/>
      <point x="279" y="-10"/>
    </contour>
  </outline>
</glyph>
<glyph name="q" format="2">
  <advance width="600"/>
  <unicode hex="0071"/>
  <outline>
    <contour>
      <point x="261" y="-8" type="curve" smooth="yes"/>
      <point x="306" y="-8"/>
      <point x="347" y="10"/>
      <point x="379" y="42" type="curve"/>
      <point x="379" y="-209" type="line"/>
      <point x="541" y="-209" type="line"/>
      <point x="541" y="516" type="line"/>
      <point x="385" y="516" type="line"/>
      <point x="385" y="468" type="line"/>
      <point x="352" y="503"/>
      <point x="309" y="524"/>
      <point x="261" y="524" type="curve" smooth="yes"/>
      <point x="135" y="524"/>
      <point x="32" y="409"/>
      <point x="32" y="258" type="curve" smooth="yes"/>
      <point x="32" y="107"/>
      <point x="135" y="-8"/>
    </contour>
    <contour>
      <point x="299" y="120" type="curve" smooth="yes"/>
      <point x="232" y="120"/>
      <point x="191" y="175"/>
      <point x="191" y="258" type="curve" smooth="yes"/>
      <point x="191" y="341"/>
      <point x="232" y="396"/>
      <point x="299" y="396" type="curve" smooth="yes"/>
      <point x="329" y="396"/>
      <point x="357" y="385"/>
      <point x="379" y="365" type="curve"/>
      <point x="379" y="151" type="line"/>
      <point x="357" y="131"/>
      <point x="329" y="120"/>
    </contour>
  </outline>
</glyph>
<glyph name="r" format="2">
  <advance width="600"/>
  <unicode hex="0072"/>
  <anchor x="394" y="516" name="top"/>
  <anchor x="248" y="0" name="bottom"/>
  <outline>
    <contour>
      <point x="58" y="0" type="line"/>
      <point x="450" y="0" type="line"/>
      <point x="450" y="125" type="line"/>
      <point x="332" y="125" type="line"/>
      <point x="332" y="313" type="line"/>
      <point x="361" y="356"/>
      <point x="414" y="382"/>
      <point x="470" y="382" type="curve" smooth="yes"/>
      <point x="504" y="382"/>
      <point x="543" y="376"/>
      <point x="568" y="364" type="curve"/>
      <point x="568" y="509" type="line"/>
      <point x="543" y="521"/>
      <point x="529" y="524"/>
      <point x="499" y="524" type="curve" smooth="yes"/>
      <point x="427" y="524"/>
      <point x="369" y="480"/>
      <point x="332" y="386" type="curve"/>
      <point x="332" y="516" type="line"/>
      <point x="58" y="516" type="line"/>
      <point x="58" y="391" type="line"/>
      <point x="170" y="391" type="line"/>
      <point x="170" y="125" type="line"/>
      <point x="58" y="125" type="line"/>
    </contour>
  </outline>
</glyph>
<glyph name="v" format="2">
  <advance width="600"/>
  <unicode hex="0076"/>
  <outline>
    <contour>
      <point x="220" y="0" type="line"/>
      <point x="378" y="0" type="line"/>
      <point x="589" y="516" type="line"/>
      <point x="422" y="516" type="line"/>
      <point x="304" y="192" type="line"/>
      <point x="187" y="516" type="line"/>
      <point x="11" y="516" type="line"/>
    </contour>
  </outline>
</glyph>
<glyph name="w" format="2">
  <advance width="600"/>
  <unicode hex="0077"/>
  <anchor x="300" y="516" name="top"/>
  <outline>
    <contour>
      <point x="113" y="0" type="line"/>
      <point x="242" y="0" type="line"/>
      <point x="301" y="305" type="line"/>
      <point x="361" y="0" type="line"/>
      <point x="489" y="0" type="line"/>
      <point x="585" y="516" type="line"/>
      <point x="462" y="516" type="line"/>
      <point x="420" y="224" type="line"/>
      <point x="358" y="516" type="line"/>
      <point x="245" y="516" type="line"/>
      <point x="186" y="225" type="line"/>
      <point x="142" y="516" type="line"/>
      <point x="15" y="516" type="line"/>
    </contour>
  </outline>
</glyph>
<glyph name="z" format="2">
  <advance width="600"/>
  <unicode hex="007A"/>
  <anchor x="300" y="516" name="top"/>
  <outline>
    <contour>
      <point x="51" y="0" type="line"/>
      <point x="549" y="0" type="line"/>
      <point x="549" y="135" type="line"/>
      <point x="264" y="133" type="line"/>
      <point x="541" y="403" type="line"/>
      <point x="541" y="516" type="line"/>
      <point x="53" y="516" type="line"/>
      <point x="53" y="380" type="line"/>
      <point x="327" y="382" type="line"/>
      <point x="51" y="113" type="line"/>
    </contour>
  </outline>
</glyph>
<glyph name="uni00A4" format="2">
  <advance width="600"/>
  <unicode hex="00A4"/>
  <outline>
    <contour>
      <point x="53" y="37" type="line"/>
      <point x="151" y="135" type="line"/>
      <point x="194" y="109"/>
      <point x="245" y="94"/>
      <point x="300" y="94" type="curve" smooth="yes"/>
      <point x="356" y="94"/>
      <point x="407" y="109"/>
      <point x="450" y="136" type="curve"/>
      <point x="550" y="37" type="line"/>
      <point x="625" y="112" type="line"/>
      <point x="528" y="209" type="line"/>
      <point x="559" y="252"/>
      <point x="577" y="306"/>
      <point x="577" y="364" type="curve" smooth="yes"/>
      <point x="577" y="422"/>
      <point x="559" y="476"/>
      <point x="528" y="519" type="curve"/>
      <point x="624" y="616" type="line"/>
      <point x="549" y="691" type="line"/>
      <point x="450" y="592" type="line"/>
      <point x="407" y="619"/>
      <point x="356" y="634"/>
      <point x="300" y="634" type="curve" smooth="yes"/>
      <point x="245" y="634"/>
      <point x="194" y="619"/>
      <point x="151" y="593" type="curve"/>
      <point x="52" y="693" type="line"/>
      <point x="-25" y="616" type="line"/>
      <point x="71" y="518" type="line"/>
      <point x="41" y="475"/>
      <point x="23" y="422"/>
      <point x="23" y="364" type="curve" smooth="yes"/>
      <point x="23" y="306"/>
      <point x="41" y="253"/>
      <point x="71" y="210" type="curve"/>
      <point x="-24" y="114" type="line"/>
    </contour>
    <contour>
      <point x="300" y="229" type="curve" smooth="yes"/>
      <point x="228" y="229"/>
      <point x="171" y="288"/>
      <point x="171" y="364" type="curve" smooth="yes"/>
      <point x="171" y="440"/>
      <point x="228" y="499"/>
      <point x="300" y="499" type="curve" smooth="yes"/>
      <point x="372" y="499"/>
      <point x="429" y="440"/>
      <point x="429" y="364" type="curve" smooth="yes"/>
      <point x="429" y="288"/>
      <point x="372" y="229"/>
    </contour>
  </outline>
</glyph>
<glyph name="yen" format="2">
  <advance width="600"/>
  <unicode hex="00A5"/>
  <outline>
    <contour>
      <point x="55" y="130" type="line"/>
      <point x="214" y="130" type="line"/>
      <point x="214" y="0" type="line"/>
      <point x="386" y="0" type="line"/>
      <point x="386" y="130" type="line"/>
      <point x="545" y="130" type="line"/>
      <point x="545" y="208" type="line"/>
      <point x="386" y="208" type="line"/>
      <point x="386" y="267" type="line"/>
      <point x="545" y="267" type="line"/>
      <point x="545" y="345" type="line"/>
      <point x="409" y="345" type="line"/>
      <point x="605" y="700" type="line"/>
      <point x="433" y="700" type="line"/>
      <point x="305" y="448" type="line"/>
      <point x="178" y="700" type="line"/>
      <point x="-5" y="700" type="line"/>
      <point x="191" y="345" type="line"/>
      <point x="55" y="345" type="line"/>
      <point x="55" y="267" type="line"/>
      <point x="214" y="267" type="line"/>
      <point x="214" y="208" type="line"/>
      <point x="55" y="208" type="line"/>
    </contour>
  </outline>
</glyph>
<glyph name="guillemotleft" format="2">
  <advance width="600"/>
  <unicode hex="00AB"/>
  <outline>
    <contour>
      <point x="179" y="0" type="line"/>
      <point x="338" y="0" type="line"/>
      <point x="166" y="261" type="line"/>
      <point x="338" y="516" type="line"/>
      <point x="182" y="516" type="line"/>
      <point x="8" y="259" type="line"/>
    </contour>
    <contour>
      <point x="439" y="0" type="line"/>
      <point x="598" y="0" type="line"/>
      <point x="426" y="261" type="line"/>
      <point x="598" y="516" type="line"/>
      <point x="442" y="516" type="line"/>
      <point x="268" y="259" type="line"/>
    </contour>
  </outline>
</glyph>
<glyph name="uni00AC" format="2">
  <advance width="600"/>
  <unicode hex="00AC"/>
  <outline>
    <contour>
      <point x="419" y="0" type="line"/>
      <point x="543" y="0" type="line"/>
      <point x="543" y="354" type="line"/>
      <point x="57" y="354" type="line"/>
      <point x="57" y="234" type="line"/>
      <point x="419" y="234" type="line"/>
    </contour>
  </outline>
</glyph>
<glyph name="macron" format="2">
  <advance width="600"/>
  <unicode hex="00AF"/>
  <anchor x="300" y="516" name="_top"/>
  <outline>
    <contour>
      <point x="136" y="626" type="line"/>
      <point x="465" y="626" type="line"/>
      <point x="465" y="726" type="line"/>
      <point x="136" y="726" type="line"/>
    </contour>
  </outline>
</glyph>
<glyph name="degree" format="2">
  <advance width="600"/>
  <unicode hex="00B0"/>
  <outline>
    <contour>
      <point x="300" y="411" type="curve" smooth="yes"/>
      <point x="389" y="411"/>
      <point x="455" y="480"/>
      <point x="455" y="561" type="curve" smooth="yes"/>
      <point x="455" y="642"/>
      <point x="389" y="711"/>
      <point x="300" y="711" type="curve" smooth="yes"/>
      <point x="211" y="711"/>
      <point x="145" y="642"/>
      <point x="145" y="561" type="curve" smooth="yes"/>
      <point x="145" y="480"/>
      <point x="211" y="411"/>
    </contour>
    <contour>
      <point x="300" y="492" type="curve" smooth="yes"/>
      <point x="260" y="492"/>
      <point x="228" y="523"/>
      <point x="228" y="561" type="curve" smooth="yes"/>
      <point x="228" y="599"/>
      <point x="260" y="630"/>
      <point x="300" y="630" type="curve" smooth="yes"/>
      <point x="340" y="630"/>
      <point x="372" y="599"/>
      <point x="372" y="561" type="curve" smooth="yes"/>
      <point x="372" y="523"/>
      <point x="340" y="492"/>
    </contour>
  </outline>
</glyph>
<glyph name="acute" format="2">
  <advance width="600"/>
  <unicode hex="00B4"/>
  <anchor x="300" y="516" name="_top"/>
  <outline>
    <contour>
      <point x="208" y="601" type="line"/>
      <point x="347" y="601" type="line"/>
      <point x="539" y="747" type="line"/>
      <point x="346" y="747" type="line"/>
    </contour>
  </outline>
</glyph>
<glyph name="uni00B5" format="2">
  <advance width="600"/>
  <unicode hex="00B5"/>
  <outline>
    <contour>
      <point x="59" y="-209" type="line"/>
      <point x="221" y="-209" type="line"/>
      <point x="221" y="-5" type="line"/>
      <point x="230" y="-7"/>
      <point x="240" y="-8"/>
      <point x="250" y="-8" type="curve" smooth="yes"/>
      <point x="304" y="-8"/>
      <point x="349" y="18"/>
      <point x="383" y="65" type="curve"/>
      <point x="383" y="0" type="line"/>
      <point x="545" y="0" type="line"/>
      <point x="545" y="516" type="line"/>
      <point x="383" y="516" type="line"/>
      <point x="383" y="150" type="line"/>
      <point x="362" y="129"/>
      <point x="337" y="119"/>
      <point x="307" y="119" type="curve" smooth="yes"/>
      <point x="255" y="119"/>
      <point x="221" y="157"/>
      <point x="221" y="215" type="curve"/>
      <point x="221" y="516" type="line"/>
      <point x="59" y="516" type="line"/>
    </contour>
  </outline>
</glyph>
<glyph name="paragraph" format="2">
  <advance width="600"/>
  <unicode hex="00B6"/>
  <outline>
    <contour>
      <point x="239" y="0" type="line"/>
      <point x="363" y="0" type="line"/>
      <point x="363" y="236" type="line"/>
      <point x="438" y="236" type="line"/>
      <point x="438" y="0" type="line"/>
      <point x="562" y="0" type="line"/>
      <point x="562" y="700" type="line"/>
      <point x="234" y="700" type="line" smooth="yes"/>
      <point x="97" y="700"/>
      <point x="8" y="611"/>
      <point x="8" y="468" type="curve" smooth="yes"/>
      <point x="8" y="325"/>
      <point x="97" y="236"/>
      <point x="234" y="236" type="curve" smooth="yes"/>
      <point x="239" y="236" type="line"/>
    </contour>
    <contour>
      <point x="438" y="356" type="line"/>
      <point x="363" y="356" type="line"/>
      <point x="363" y="580" type="line"/>
      <point x="438" y="580" type="line"/>
    </contour>
    <contour>
      <point x="234" y="356" type="line" smooth="yes"/>
      <point x="167" y="356"/>
      <point x="133" y="394"/>
      <point x="133" y="468" type="curve" smooth="yes"/>
      <point x="133" y="542"/>
      <point x="167" y="580"/>
      <point x="234" y="580" type="curve" smooth="yes"/>
      <point x="239" y="580" type="line"/>
      <point x="239" y="356" type="line"/>
    </contour>
  </outline>
</glyph>
<glyph name="periodcentered" format="2">
  <advance width="600"/>
  <unicode hex="00B7"/>
  <outline>
    <contour>
      <point x="300" y="195" type="curve" smooth="yes"/>
      <point x="360" y="195"/>
      <point x="407" y="242"/>
      <point x="407" y="301" type="curve" smooth="yes"/>
      <point x="407" y="360"/>
      <point x="360" y="407"/>
      <point x="300" y="407" type="curve" smooth="yes"/>
      <point x="240" y="407"/>
      <point x="193" y="360"/>
      <point x="193" y="301" type="curve" smooth="yes"/>
      <point x="193" y="242"/>
      <point x="240" y="195"/>
    </contour>
  </outline>
</glyph>
<glyph name="threequarters" format="2">
  <advance width="600"/>
  <unicode hex="00BE"/>
  <outline>
    <contour>
      <point x="138" y="413" type="curve" smooth="yes"/>
      <point x="209" y="413"/>
      <point x="260" y="449"/>
      <point x="260" y="499" type="curve" smooth="yes"/>
      <point x="260" y="528"/>
      <point x="239" y="550"/>
      <point x="207" y="559" type="curve"/>
      <point x="236" y="570"/>
      <point x="255" y="593"/>
      <point x="255" y="621" type="curve" smooth="yes"/>
      <point x="255" y="671"/>
      <point x="209" y="705"/>
      <point x="141" y="705" type="curve" smooth="yes"/>
      <point x="98" y="705"/>
      <point x="50" y="686"/>
      <point x="23" y="657" type="curve"/>
      <point x="76" y="603" type="line"/>
      <point x="100" y="624"/>
      <point x="115" y="631"/>
      <point x="137" y="631" type="curve" smooth="yes"/>
      <point x="158" y="631"/>
      <point x="170" y="622"/>
      <point x="170" y="608" type="curve" smooth="yes"/>
      <point x="170" y="594"/>
      <point x="161" y="588"/>
      <point x="141" y="588" type="curve"/>
      <point x="115" y="588" type="line"/>
      <point x="115" y="522" type="line"/>
      <point x="151" y="522" type="line"/>
      <point x="167" y="522"/>
      <point x="175" y="516"/>
      <point x="175" y="505" type="curve" smooth="yes"/>
      <point x="175" y="493"/>
      <point x="160" y="485"/>
      <point x="137" y="485" type="curve" smooth="yes"/>
      <point x="110" y="485"/>
      <point x="93" y="493"/>
      <point x="71" y="513" type="curve"/>
      <point x="21" y="456" type="line"/>
      <point x="49" y="429"/>
      <point x="91" y="413"/>
    </contour>
    <contour>
      <point x="461" y="0" type="line"/>
      <point x="545" y="0" type="line"/>
      <point x="545" y="56" type="line"/>
      <point x="579" y="56" type="line"/>
      <point x="579" y="122" type="line"/>
      <point x="545" y="122" type="line"/>
      <point x="545" y="284" type="line"/>
      <point x="447" y="284" type="line"/>
      <point x="313" y="125" type="line"/>
      <point x="313" y="56" type="line"/>
      <point x="461" y="56" type="line"/>
    </contour>
    <contour>
      <point x="395" y="122" type="line"/>
      <point x="461" y="199" type="line"/>
      <point x="461" y="122" type="line"/>
    </contour>
    <component base="fraction" xOffset="20"/>
  </outline>
</glyph>
<glyph name="Ccedilla" format="2">
  <advance width="600"/>
  <unicode hex="00C7"/>
  <outline>
    <contour>
      <point x="315" y="-254" type="curve" smooth="yes"/>
      <point x="390" y="-254"/>
      <point x="447" y="-206"/>
      <point x="447" y="-144" type="curve" smooth="yes"/>
      <point x="447" y="-95"/>
      <point x="408" y="-63"/>
      <point x="345" y="-58" type="curve"/>
      <point x="357" y="-7" type="line"/>
      <point x="462" y="12"/>
      <point x="545" y="96"/>
      <point x="574" y="229" type="curve"/>
      <point x="423" y="268" type="line"/>
      <point x="411" y="184"/>
      <point x="366" y="142"/>
      <point x="315" y="142" type="curve" smooth="yes"/>
      <point x="251" y="142"/>
      <point x="202" y="201"/>
      <point x="202" y="350" type="curve" smooth="yes"/>
      <point x="202" y="499"/>
      <point x="251" y="558"/>
      <point x="315" y="558" type="curve" smooth="yes"/>
      <point x="366" y="558"/>
      <point x="411" y="516"/>
      <point x="423" y="432" type="curve"/>
      <point x="574" y="471" type="line"/>
      <point x="541" y="624"/>
      <point x="436" y="711"/>
      <point x="310" y="711" type="curve" smooth="yes"/>
      <point x="152" y="711"/>
      <point x="29" y="582"/>
      <point x="29" y="350" type="curve" smooth="yes"/>
      <point x="29" y="131"/>
      <point x="139" y="4"/>
      <point x="284" y="-10" type="curve"/>
      <point x="259" y="-111" type="line"/>
      <point x="304" y="-111" type="line" smooth="yes"/>
      <point x="339" y="-111"/>
      <point x="360" y="-124"/>
      <point x="360" y="-146" type="curve" smooth="yes"/>
      <point x="360" y="-170"/>
      <point x="341" y="-183"/>
      <point x="306" y="-183" type="curve" smooth="yes"/>
      <point x="280" y="-183"/>
      <point x="252" y="-173"/>
      <point x="229" y="-155" type="curve"/>
      <point x="180" y="-212" type="line"/>
      <point x="212" y="-240"/>
      <point x="256" y="-254"/>
    </contour>
  </outline>
</glyph>
<glyph name="multiply" format="2">
  <advance width="600"/>
  <unicode hex="00D7"/>
  <outline>
    <contour>
      <point x="159" y="133" type="line"/>
      <point x="299" y="283" type="line"/>
      <point x="440" y="132" type="line"/>
      <point x="513" y="209" type="line"/>
      <point x="372" y="360" type="line"/>
      <point x="512" y="510" type="line"/>
      <point x="441" y="585" type="line"/>
      <point x="301" y="436" type="line"/>
      <point x="160" y="586" type="line"/>
      <point x="87" y="509" type="line"/>
      <point x="228" y="358" type="line"/>
      <point x="87" y="208" type="line"/>
    </contour>
  </outline>
</glyph>
<glyph name="Oslash" format="2">
  <advance width="600"/>
  <unicode hex="00D8"/>
  <outline>
    <contour>
      <point x="300" y="-11" type="curve" smooth="yes"/>
      <point x="458" y="-11"/>
      <point x="582" y="118"/>
      <point x="582" y="350" type="curve" smooth="yes"/>
      <point x="582" y="451"/>
      <point x="559" y="532"/>
      <point x="520" y="591" type="curve"/>
      <point x="589" y="700" type="line"/>
      <point x="459" y="700" type="line"/>
      <point x="440" y="671" type="line"/>
      <point x="399" y="697"/>
      <point x="351" y="711"/>
      <point x="300" y="711" type="curve" smooth="yes"/>
      <point x="142" y="711"/>
      <point x="18" y="582"/>
      <point x="18" y="350" type="curve" smooth="yes"/>
      <point x="18" y="249"/>
      <point x="41" y="168"/>
      <point x="80" y="109" type="curve"/>
      <point x="11" y="0" type="line"/>
      <point x="141" y="0" type="line"/>
      <point x="160" y="29" type="line"/>
      <point x="201" y="3"/>
      <point x="249" y="-11"/>
    </contour>
    <contour>
      <point x="195" y="287" type="line"/>
      <point x="192" y="306"/>
      <point x="191" y="327"/>
      <point x="191" y="350" type="curve" smooth="yes"/>
      <point x="191" y="494"/>
      <point x="238" y="558"/>
      <point x="300" y="558" type="curve" smooth="yes"/>
      <point x="320" y="558"/>
      <point x="339" y="551"/>
      <point x="355" y="537" type="curve"/>
    </contour>
    <contour>
      <point x="300" y="142" type="curve" smooth="yes"/>
      <point x="280" y="142"/>
      <point x="261" y="149"/>
      <point x="245" y="163" type="curve"/>
      <point x="405" y="413" type="line"/>
      <point x="408" y="394"/>
      <point x="409" y="373"/>
      <point x="409" y="350" type="curve" smooth="yes"/>
      <point x="409" y="206"/>
      <point x="362" y="142"/>
    </contour>
  </outline>
</glyph>
<glyph name="ae" format="2">
  <advance width="600"/>
  <unicode hex="00E6"/>
  <outline>
    <contour>
      <point x="153" y="-10" type="curve" smooth="yes"/>
      <point x="202" y="-10"/>
      <point x="237" y="5"/>
      <point x="284" y="49" type="curve"/>
      <point x="320" y="11"/>
      <point x="369" y="-10"/>
      <point x="426" y="-10" type="curve" smooth="yes"/>
      <point x="484" y="-10"/>
      <point x="534" y="5"/>
      <point x="578" y="37" type="curve"/>
      <point x="520" y="147" type="line"/>
      <point x="496" y="129"/>
      <point x="467" y="115"/>
      <point x="436" y="115" type="curve" smooth="yes"/>
      <point x="389" y="115"/>
      <point x="361" y="155"/>
      <point x="352" y="217" type="curve"/>
      <point x="586" y="217" type="line"/>
      <point x="586" y="258" type="line" smooth="yes"/>
      <point x="586" y="429"/>
      <point x="508" y="524"/>
      <point x="405" y="524" type="curve" smooth="yes"/>
      <point x="356" y="524"/>
      <point x="320" y="506"/>
      <point x="291" y="472" type="curve"/>
      <point x="264" y="506"/>
      <point x="225" y="524"/>
      <point x="175" y="524" type="curve" smooth="yes"/>
      <point x="123" y="524"/>
      <point x="63" y="504"/>
      <point x="5" y="466" type="curve"/>
      <point x="61" y="356" type="line"/>
      <point x="107" y="386"/>
      <point x="129" y="395"/>
      <point x="159" y="395" type="curve" smooth="yes"/>
      <point x="194" y="395"/>
      <point x="212" y="373"/>
      <point x="212" y="329" type="curve" smooth="yes"/>
      <point x="212" y="291" type="line"/>
      <point x="200" y="294"/>
      <point x="188" y="295"/>
      <point x="174" y="295" type="curve" smooth="yes"/>
      <point x="72" y="295"/>
      <point x="7" y="235"/>
      <point x="7" y="144" type="curve" smooth="yes"/>
      <point x="7" y="54"/>
      <point x="66" y="-10"/>
    </contour>
    <contour>
      <point x="352" y="306" type="line"/>
      <point x="357" y="371"/>
      <point x="373" y="401"/>
      <point x="400" y="401" type="curve" smooth="yes"/>
      <point x="425" y="401"/>
      <point x="445" y="367"/>
      <point x="447" y="306" type="curve"/>
    </contour>
    <contour>
      <point x="192" y="94" type="curve" smooth="yes"/>
      <point x="161" y="94"/>
      <point x="142" y="117"/>
      <point x="142" y="150" type="curve" smooth="yes"/>
      <point x="142" y="181"/>
      <point x="165" y="205"/>
      <point x="200" y="205" type="curve" smooth="yes"/>
      <point x="205" y="205"/>
      <point x="210" y="205"/>
      <point x="215" y="204" type="curve"/>
      <point x="219" y="171"/>
      <point x="228" y="141"/>
      <point x="240" y="115" type="curve"/>
      <point x="224" y="102"/>
      <point x="211" y="94"/>
    </contour>
  </outline>
</glyph>
<glyph name="oslash" format="2">
  <advance width="600"/>
  <unicode hex="00F8"/>
  <outline>
    <contour>
      <point x="28" y="0" type="line"/>
      <point x="130" y="0" type="line"/>
      <point x="155" y="30" type="line"/>
      <point x="197" y="4"/>
      <point x="246" y="-10"/>
      <point x="300" y="-10" type="curve" smooth="yes"/>
      <point x="453" y="-10"/>
      <point x="569" y="106"/>
      <point x="569" y="257" type="curve" smooth="yes"/>
      <point x="569" y="327"/>
      <point x="544" y="389"/>
      <point x="503" y="435" type="curve"/>
      <point x="572" y="516" type="line"/>
      <point x="470" y="516" type="line"/>
      <point x="443" y="485" type="line"/>
      <point x="402" y="510"/>
      <point x="353" y="524"/>
      <point x="300" y="524" type="curve" smooth="yes"/>
      <point x="147" y="524"/>
      <point x="31" y="408"/>
      <point x="31" y="257" type="curve" smooth="yes"/>
      <point x="31" y="188"/>
      <point x="55" y="126"/>
      <point x="96" y="80" type="curve"/>
    </contour>
    <contour>
      <point x="199" y="200" type="line"/>
      <point x="193" y="217"/>
      <point x="189" y="236"/>
      <point x="189" y="257" type="curve" smooth="yes"/>
      <point x="189" y="333"/>
      <point x="235" y="388"/>
      <point x="300" y="388" type="curve" smooth="yes"/>
      <point x="318" y="388"/>
      <point x="335" y="384"/>
      <point x="350" y="376" type="curve"/>
    </contour>
    <contour>
      <point x="300" y="126" type="curve" smooth="yes"/>
      <point x="281" y="126"/>
      <point x="264" y="131"/>
      <point x="249" y="139" type="curve"/>
      <point x="401" y="316" type="line"/>
      <point x="407" y="298"/>
      <point x="411" y="279"/>
      <point x="411" y="257" type="curve" smooth="yes"/>
      <point x="411" y="181"/>
      <point x="365" y="126"/>
    </contour>
  </outline>
</glyph>
<glyph name="Dcroat" format="2">
  <advance width="600"/>
  <unicode hex="0110"/>
  <outline>
    <contour>
      <point x="60" y="0" type="line"/>
      <point x="277" y="0" type="line" smooth="yes"/>
      <point x="446" y="0"/>
      <point x="579" y="130"/>
      <point x="579" y="350" type="curve" smooth="yes"/>
      <point x="579" y="570"/>
      <point x="446" y="700"/>
      <point x="277" y="700" type="curve" smooth="yes"/>
      <point x="60" y="700" type="line"/>
      <point x="60" y="413" type="line"/>
      <point x="6" y="413" type="line"/>
      <point x="6" y="293" type="line"/>
      <point x="60" y="293" type="line"/>
    </contour>
    <contour>
      <point x="232" y="144" type="line"/>
      <point x="232" y="293" type="line"/>
      <point x="300" y="293" type="line"/>
      <point x="300" y="413" type="line"/>
      <point x="232" y="413" type="line"/>
      <point x="232" y="556" type="line"/>
      <point x="264" y="556" type="line" smooth="yes"/>
      <point x="343" y="556"/>
      <point x="406" y="488"/>
      <point x="406" y="350" type="curve" smooth="yes"/>
      <point x="406" y="212"/>
      <point x="343" y="144"/>
      <point x="264" y="144" type="curve" smooth="yes"/>
    </contour>
  </outline>
</glyph>
<glyph name="Eogonek" format="2">
  <advance width="600"/>
  <unicode hex="0118"/>
  <outline>
    <contour>
      <point x="74" y="0" type="line"/>
      <point x="478" y="0" type="line"/>
      <point x="417" y="-41"/>
      <point x="390" y="-82"/>
      <point x="390" y="-132" type="curve" smooth="yes"/>
      <point x="390" y="-191"/>
      <point x="433" y="-231"/>
      <point x="498" y="-231" type="curve" smooth="yes"/>
      <point x="534" y="-231"/>
      <point x="569" y="-222"/>
      <point x="591" y="-208" type="curve"/>
      <point x="571" y="-138" type="line"/>
      <point x="561" y="-145"/>
      <point x="544" y="-149"/>
      <point x="526" y="-149" type="curve" smooth="yes"/>
      <point x="496" y="-149"/>
      <point x="477" y="-132"/>
      <point x="477" y="-103" type="curve" smooth="yes"/>
      <point x="477" y="-67"/>
      <point x="504" y="-35"/>
      <point x="562" y="0" type="curve"/>
      <point x="562" y="144" type="line"/>
      <point x="246" y="144" type="line"/>
      <point x="246" y="283" type="line"/>
      <point x="443" y="283" type="line"/>
      <point x="443" y="423" type="line"/>
      <point x="246" y="423" type="line"/>
      <point x="246" y="556" type="line"/>
      <point x="558" y="556" type="line"/>
      <point x="558" y="700" type="line"/>
      <point x="74" y="700" type="line"/>
    </contour>
  </outline>
</glyph>
<glyph name="hbar" format="2">
  <advance width="600"/>
  <unicode hex="0127"/>
  <outline>
    <contour>
      <point x="59" y="0" type="line"/>
      <point x="221" y="0" type="line"/>
      <point x="221" y="366" type="line"/>
      <point x="242" y="387"/>
      <point x="267" y="397"/>
      <point x="297" y="397" type="curve" smooth="yes"/>
      <point x="349" y="397"/>
      <point x="383" y="359"/>
      <point x="383" y="301" type="curve" smooth="yes"/>
      <point x="383" y="0" type="line"/>
      <point x="545" y="0" type="line"/>
      <point x="545" y="348" type="line" smooth="yes"/>
      <point x="545" y="451"/>
      <point x="474" y="524"/>
      <point x="374" y="524" type="curve" smooth="yes"/>
      <point x="312" y="524"/>
      <point x="260" y="497"/>
      <point x="221" y="446" type="curve"/>
      <point x="221" y="560" type="line"/>
      <point x="325" y="560" type="line"/>
      <point x="325" y="648" type="line"/>
      <point x="221" y="648" type="line"/>
      <point x="221" y="737" type="line"/>
      <point x="59" y="712" type="line"/>
      <point x="59" y="648" type="line"/>
      <point x="1" y="648" type="line"/>
      <point x="1" y="560" type="line"/>
      <point x="59" y="560" type="line"/>
    </contour>
  </outline>
</glyph>
<glyph name="Iogonek" format="2">
  <advance width="600"/>
  <unicode hex="012E"/>
  <outline>
    <contour>
      <point x="44" y="0" type="line"/>
      <point x="472" y="0" type="line"/>
      <point x="411" y="-41"/>
      <point x="384" y="-82"/>
      <point x="384" y="-132" type="curve" smooth="yes"/>
      <point x="384" y="-191"/>
      <point x="427" y="-231"/>
      <point x="492" y="-231" type="curve" smooth="yes"/>
      <point x="528" y="-231"/>
      <point x="563" y="-222"/>
      <point x="585" y="-208" type="curve"/>
      <point x="565" y="-138" type="line"/>
      <point x="555" y="-145"/>
      <point x="538" y="-149"/>
      <point x="520" y="-149" type="curve" smooth="yes"/>
      <point x="490" y="-149"/>
      <point x="471" y="-132"/>
      <point x="471" y="-103" type="curve" smooth="yes"/>
      <point x="471" y="-67"/>
      <point x="498" y="-35"/>
      <point x="556" y="0" type="curve"/>
      <point x="556" y="144" type="line"/>
      <point x="386" y="144" type="line"/>
      <point x="386" y="556" type="line"/>
      <point x="556" y="556" type="line"/>
      <point x="556" y="700" type="line"/>
      <point x="44" y="700" type="line"/>
      <point x="44" y="556" type="line"/>
      <point x="214" y="556" type="line"/>
      <point x="214" y="144" type="line"/>
      <point x="44" y="144" type="line"/>
    </contour>
  </outline>
</glyph>
<glyph name="iogonek" format="2">
  <advance width="600"/>
  <unicode hex="012F"/>
  <outline>
    <contour>
      <point x="301" y="594" type="curve" smooth="yes"/>
      <point x="357" y="594"/>
      <point x="403" y="640"/>
      <point x="403" y="696" type="curve" smooth="yes"/>
      <point x="403" y="752"/>
      <point x="357" y="798"/>
      <point x="301" y="798" type="curve" smooth="yes"/>
      <point x="245" y="798"/>
      <point x="199" y="752"/>
      <point x="199" y="696" type="curve" smooth="yes"/>
      <point x="199" y="640"/>
      <point x="245" y="594"/>
    </contour>
    <contour>
      <point x="454" y="-231" type="curve" smooth="yes"/>
      <point x="490" y="-231"/>
      <point x="525" y="-222"/>
      <point x="547" y="-208" type="curve"/>
      <point x="527" y="-138" type="line"/>
      <point x="517" y="-145"/>
      <point x="500" y="-149"/>
      <point x="482" y="-149" type="curve" smooth="yes"/>
      <point x="452" y="-149"/>
      <point x="433" y="-132"/>
      <point x="433" y="-103" type="curve" smooth="yes"/>
      <point x="433" y="-67"/>
      <point x="460" y="-35"/>
      <point x="518" y="0" type="curve"/>
      <point x="535" y="4"/>
      <point x="549" y="9"/>
      <point x="558" y="13" type="curve"/>
      <point x="558" y="144" type="line"/>
      <point x="525" y="130"/>
      <point x="499" y="126"/>
      <point x="470" y="126" type="curve" smooth="yes"/>
      <point x="408" y="126"/>
      <point x="382" y="151"/>
      <point x="382" y="209" type="curve" smooth="yes"/>
      <point x="382" y="516" type="line"/>
      <point x="42" y="516" type="line"/>
      <point x="42" y="391" type="line"/>
      <point x="220" y="391" type="line"/>
      <point x="220" y="192" type="line" smooth="yes"/>
      <point x="220" y="63"/>
      <point x="288" y="-5"/>
      <point x="421" y="-10" type="curve"/>
      <point x="369" y="-47"/>
      <point x="346" y="-86"/>
      <point x="346" y="-132" type="curve" smooth="yes"/>
      <point x="346" y="-191"/>
      <point x="389" y="-231"/>
    </contour>
  </outline>
</glyph>
<glyph name="ij" format="2">
  <advance width="600"/>
  <unicode hex="0133"/>
  <outline>
    <contour>
      <point x="78" y="0" type="line"/>
      <point x="240" y="0" type="line"/>
      <point x="240" y="516" type="line"/>
      <point x="78" y="516" type="line"/>
    </contour>
    <contour>
      <point x="327" y="-219" type="curve" smooth="yes"/>
      <point x="456" y="-219"/>
      <point x="521" y="-157"/>
      <point x="521" y="-28" type="curve" smooth="yes"/>
      <point x="521" y="516" type="line"/>
      <point x="359" y="516" type="line"/>
      <point x="359" y="-18" type="line" smooth="yes"/>
      <point x="359" y="-60"/>
      <point x="340" y="-81"/>
      <point x="305" y="-81" type="curve" smooth="yes"/>
      <point x="290" y="-81"/>
      <point x="270" y="-80"/>
      <point x="243" y="-72" type="curve"/>
      <point x="243" y="-207" type="line"/>
      <point x="268" y="-214"/>
      <point x="302" y="-219"/>
    </contour>
    <contour>
      <point x="261" y="696" type="curve" smooth="yes"/>
      <point x="261" y="752"/>
      <point x="215" y="798"/>
      <point x="159" y="798" type="curve" smooth="yes"/>
      <point x="103" y="798"/>
      <point x="57" y="752"/>
      <point x="57" y="696" type="curve" smooth="yes"/>
      <point x="57" y="640"/>
      <point x="103" y="594"/>
      <point x="159" y="594" type="curve" smooth="yes"/>
      <point x="215" y="594"/>
      <point x="261" y="640"/>
    </contour>
    <contour>
      <point x="543" y="696" type="curve" smooth="yes"/>
      <point x="543" y="752"/>
      <point x="497" y="798"/>
      <point x="441" y="798" type="curve" smooth="yes"/>
      <point x="385" y="798"/>
      <point x="339" y="752"/>
      <point x="339" y="696" type="curve" smooth="yes"/>
      <point x="339" y="640"/>
      <point x="385" y="594"/>
      <point x="441" y="594" type="curve" smooth="yes"/>
      <point x="497" y="594"/>
      <point x="543" y="640"/>
    </contour>
  </outline>
</glyph>
<glyph name="kgreenlandic" format="2">
  <advance width="600"/>
  <unicode hex="0138"/>
  <outline>
    <contour>
      <point x="59" y="0" type="line"/>
      <point x="221" y="0" type="line"/>
      <point x="221" y="228" type="line"/>
      <point x="393" y="0" type="line"/>
      <point x="595" y="0" type="line"/>
      <point x="370" y="285" type="line"/>
      <point x="580" y="516" type="line"/>
      <point x="401" y="516" type="line"/>
      <point x="221" y="311" type="line"/>
      <point x="221" y="516" type="line"/>
      <point x="59" y="516" type="line"/>
    </contour>
  </outline>
</glyph>
<glyph name="Lslash" format="2">
  <advance width="600"/>
  <unicode hex="0141"/>
  <outline>
    <contour>
      <point x="79" y="0" type="line"/>
      <point x="567" y="0" type="line"/>
      <point x="567" y="144" type="line"/>
      <point x="251" y="144" type="line"/>
      <point x="251" y="297" type="line"/>
      <point x="423" y="398" type="line"/>
      <point x="423" y="540" type="line"/>
      <point x="251" y="439" type="line"/>
      <point x="251" y="700" type="line"/>
      <point x="79" y="700" type="line"/>
      <point x="79" y="342" type="line"/>
      <point x="1" y="296" type="line"/>
      <point x="1" y="154" type="line"/>
      <point x="79" y="200" type="line"/>
    </contour>
  </outline>
</glyph>
<glyph name="eng" format="2">
  <advance width="600"/>
  <unicode hex="014B"/>
  <outline>
    <contour>
      <point x="367" y="-219" type="curve" smooth="yes"/>
      <point x="481" y="-219"/>
      <point x="545" y="-159"/>
      <point x="545" y="-52" type="curve" smooth="yes"/>
      <point x="545" y="348" type="line" smooth="yes"/>
      <point x="545" y="451"/>
      <point x="474" y="524"/>
      <point x="374" y="524" type="curve" smooth="yes"/>
      <point x="312" y="524"/>
      <point x="260" y="497"/>
      <point x="221" y="446" type="curve"/>
      <point x="221" y="516" type="line"/>
      <point x="59" y="516" type="line"/>
      <point x="59" y="0" type="line"/>
      <point x="221" y="0" type="line"/>
      <point x="221" y="366" type="line"/>
      <point x="242" y="387"/>
      <point x="267" y="397"/>
      <point x="297" y="397" type="curve" smooth="yes"/>
      <point x="349" y="397"/>
      <point x="383" y="359"/>
      <point x="383" y="301" type="curve" smooth="yes"/>
      <point x="383" y="-42" type="line" smooth="yes"/>
      <point x="383" y="-72"/>
      <point x="367" y="-86"/>
      <point x="333" y="-86" type="curve" smooth="yes"/>
      <point x="314" y="-86"/>
      <point x="301" y="-85"/>
      <point x="287" y="-82" type="curve"/>
      <point x="287" y="-209" type="line"/>
      <point x="304" y="-215"/>
      <point x="340" y="-219"/>
    </contour>
  </outline>
</glyph>
<glyph name="scedilla" format="2">
  <advance width="600"/>
  <unicode hex="015F"/>
  <outline>
    <contour>
      <point x="300" y="-254" type="curve" smooth="yes"/>
      <point x="375" y="-254"/>
      <point x="432" y="-206"/>
      <point x="432" y="-144" type="curve" smooth="yes"/>
      <point x="432" y="-95"/>
      <point x="393" y="-63"/>
      <point x="330" y="-58" type="curve"/>
      <point x="342" y="-7" type="line"/>
      <point x="458" y="6"/>
      <point x="542" y="70"/>
      <point x="542" y="164" type="curve" smooth="yes"/>
      <point x="542" y="367"/>
      <point x="215" y="299"/>
      <point x="215" y="372" type="curve" smooth="yes"/>
      <point x="215" y="395"/>
      <point x="243" y="408"/>
      <point x="296" y="408" type="curve" smooth="yes"/>
      <point x="348" y="408"/>
      <point x="403" y="393"/>
      <point x="455" y="358" type="curve"/>
      <point x="533" y="457" type="line"/>
      <point x="465" y="503"/>
      <point x="380" y="526"/>
      <point x="300" y="526" type="curve" smooth="yes"/>
      <point x="163" y="526"/>
      <point x="73" y="467"/>
      <point x="73" y="358" type="curve" smooth="yes"/>
      <point x="73" y="161"/>
      <point x="394" y="226"/>
      <point x="394" y="151" type="curve" smooth="yes"/>
      <point x="394" y="124"/>
      <point x="360" y="109"/>
      <point x="298" y="109" type="curve" smooth="yes"/>
      <point x="244" y="109"/>
      <point x="198" y="123"/>
      <point x="122" y="167" type="curve"/>
      <point x="47" y="63" type="line"/>
      <point x="102" y="21"/>
      <point x="180" y="-5"/>
      <point x="269" y="-9" type="curve"/>
      <point x="244" y="-111" type="line"/>
      <point x="289" y="-111" type="line" smooth="yes"/>
      <point x="324" y="-111"/>
      <point x="345" y="-124"/>
      <point x="345" y="-146" type="curve" smooth="yes"/>
      <point x="345" y="-170"/>
      <point x="326" y="-183"/>
      <point x="291" y="-183" type="curve" smooth="yes"/>
      <point x="265" y="-183"/>
      <point x="237" y="-173"/>
      <point x="214" y="-155" type="curve"/>
      <point x="165" y="-212" type="line"/>
      <point x="197" y="-240"/>
      <point x="241" y="-254"/>
    </contour>
  </outline>
</glyph>
<glyph name="tcedilla" format="2">
  <advance width="600"/>
  <unicode hex="0163"/>
  <outline>
    <contour>
      <point x="398" y="-10" type="curve"/>
      <point x="442" y="-10"/>
      <point x="500" y="0"/>
      <point x="540" y="11" type="curve"/>
      <point x="540" y="142" type="line"/>
      <point x="489" y="128"/>
      <point x="459" y="126"/>
      <point x="430" y="126" type="curve" smooth="yes"/>
      <point x="365" y="126"/>
      <point x="342" y="149"/>
      <point x="342" y="214" type="curve" smooth="yes"/>
      <point x="342" y="391" type="line"/>
      <point x="537" y="391" type="line"/>
      <point x="537" y="516" type="line"/>
      <point x="342" y="516" type="line"/>
      <point x="342" y="692" type="line"/>
      <point x="180" y="659" type="line"/>
      <point x="180" y="516" type="line"/>
      <point x="29" y="516" type="line"/>
      <point x="29" y="391" type="line"/>
      <point x="180" y="391" type="line"/>
      <point x="180" y="182" type="line" smooth="yes"/>
      <point x="180" y="79"/>
      <point x="229" y="16"/>
      <point x="325" y="-3" type="curve"/>
      <point x="299" y="-111" type="line"/>
      <point x="344" y="-111" type="line" smooth="yes"/>
      <point x="379" y="-111"/>
      <point x="400" y="-124"/>
      <point x="400" y="-146" type="curve" smooth="yes"/>
      <point x="400" y="-170"/>
      <point x="381" y="-183"/>
      <point x="346" y="-183" type="curve" smooth="yes"/>
      <point x="320" y="-183"/>
      <point x="292" y="-173"/>
      <point x="269" y="-155" type="curve"/>
      <point x="220" y="-212" type="line"/>
      <point x="252" y="-240"/>
      <point x="296" y="-254"/>
      <point x="355" y="-254" type="curve" smooth="yes"/>
      <point x="430" y="-254"/>
      <point x="487" y="-206"/>
      <point x="487" y="-144" type="curve" smooth="yes"/>
      <point x="487" y="-95"/>
      <point x="448" y="-63"/>
      <point x="385" y="-58" type="curve"/>
      <point x="397" y="-10" type="line"/>
      <point x="397" y="-10.0"/>
      <point x="398" y="-10.0"/>
    </contour>
  </outline>
</glyph>
<glyph name="Tbar" format="2">
  <advance width="600"/>
  <unicode hex="0166"/>
  <outline>
    <contour>
      <point x="214" y="0" type="line"/>
      <point x="386" y="0" type="line"/>
      <point x="386" y="259" type="line"/>
      <point x="509" y="259" type="line"/>
      <point x="509" y="379" type="line"/>
      <point x="386" y="379" type="line"/>
      <point x="386" y="556" type="line"/>
      <point x="586" y="556" type="line"/>
      <point x="586" y="700" type="line"/>
      <point x="14" y="700" type="line"/>
      <point x="14" y="556" type="line"/>
      <point x="214" y="556" type="line"/>
      <point x="214" y="379" type="line"/>
      <point x="91" y="379" type="line"/>
      <point x="91" y="259" type="line"/>
      <point x="214" y="259" type="line"/>
    </contour>
  </outline>
</glyph>
<glyph name="Uogonek" format="2">
  <advance width="600"/>
  <unicode hex="0172"/>
  <outline>
    <contour>
      <point x="320" y="-231" type="curve" smooth="yes"/>
      <point x="356" y="-231"/>
      <point x="391" y="-222"/>
      <point x="413" y="-208" type="curve"/>
      <point x="393" y="-138" type="line"/>
      <point x="383" y="-145"/>
      <point x="366" y="-149"/>
      <point x="348" y="-149" type="curve" smooth="yes"/>
      <point x="318" y="-149"/>
      <point x="299" y="-132"/>
      <point x="299" y="-103" type="curve" smooth="yes"/>
      <point x="299" y="-67"/>
      <point x="326" y="-35"/>
      <point x="384" y="0" type="curve"/>
      <point x="492" y="30"/>
      <point x="558" y="120"/>
      <point x="558" y="247" type="curve" smooth="yes"/>
      <point x="558" y="700" type="line"/>
      <point x="386" y="700" type="line"/>
      <point x="386" y="247" type="line" smooth="yes"/>
      <point x="386" y="184"/>
      <point x="353" y="143"/>
      <point x="300" y="143" type="curve" smooth="yes"/>
      <point x="247" y="143"/>
      <point x="214" y="184"/>
      <point x="214" y="247" type="curve" smooth="yes"/>
      <point x="214" y="700" type="line"/>
      <point x="42" y="700" type="line"/>
      <point x="42" y="247" type="line" smooth="yes"/>
      <point x="42" y="95"/>
      <point x="137" y="-4"/>
      <point x="285" y="-11" type="curve"/>
      <point x="235" y="-48"/>
      <point x="212" y="-86"/>
      <point x="212" y="-132" type="curve" smooth="yes"/>
      <point x="212" y="-191"/>
      <point x="255" y="-231"/>
    </contour>
  </outline>
</glyph>
<glyph name="circumflex" format="2">
  <advance width="600"/>
  <unicode hex="02C6"/>
  <outline>
    <contour>
      <point x="94" y="599" type="line"/>
      <point x="217" y="599" type="line"/>
      <point x="298" y="682" type="line"/>
      <point x="380" y="599" type="line"/>
      <point x="506" y="599" type="line"/>
      <point x="378" y="750" type="line"/>
      <point x="222" y="750" type="line"/>
    </contour>
  </outline>
</glyph>
<glyph name="ogonek" format="2">
  <advance width="600"/>
  <unicode hex="02DB"/>
  <outline>
    <contour>
      <point x="306" y="-231" type="curve" smooth="yes"/>
      <point x="342" y="-231"/>
      <point x="377" y="-222"/>
      <point x="399" y="-208" type="curve"/>
      <point x="379" y="-138" type="line"/>
      <point x="369" y="-145"/>
      <point x="352" y="-149"/>
      <point x="334" y="-149" type="curve" smooth="yes"/>
      <point x="304" y="-149"/>
      <point x="285" y="-132"/>
      <point x="285" y="-103" type="curve" smooth="yes"/>
      <point x="285" y="-67"/>
      <point x="312" y="-35"/>
      <point x="370" y="0" type="curve"/>
      <point x="323" y="22" type="line"/>
      <point x="236" y="-26"/>
      <point x="198" y="-73"/>
      <point x="198" y="-132" type="curve" smooth="yes"/>
      <point x="198" y="-191"/>
      <point x="241" y="-231"/>
    </contour>
  </outline>
</glyph>
<glyph name="uni0302" format="2">
  <unicode hex="0302"/>
  <anchor x="300" y="516" name="_top"/>
  <outline>
    <contour>
      <point x="94" y="599" type="line"/>
      <point x="217" y="599" type="line"/>
      <point x="298" y="682" type="line"/>
      <point x="380" y="599" type="line"/>
      <point x="506" y="599" type="line"/>
      <point x="378" y="750" type="line"/>
      <point x="222" y="750" type="line"/>
    </contour>
  </outline>
</glyph>
<glyph name="uni0304" format="2">
  <unicode hex="0304"/>
  <anchor x="300" y="516" name="_top"/>
  <outline>
    <contour>
      <point x="136" y="626" type="line"/>
      <point x="465" y="626" type="line"/>
      <point x="465" y="726" type="line"/>
      <point x="136" y="726" type="line"/>
    </contour>
  </outline>
</glyph>
<glyph name="uni0307" format="2">
  <unicode hex="0307"/>
  <anchor x="300" y="516" name="_top"/>
  <outline>
    <contour>
      <point x="303" y="595" type="curve" smooth="yes"/>
      <point x="353" y="595"/>
      <point x="393" y="635"/>
      <point x="393" y="684" type="curve" smooth="yes"/>
      <point x="393" y="733"/>
      <point x="353" y="773"/>
      <point x="303" y="773" type="curve" smooth="yes"/>
      <point x="253" y="773"/>
      <point x="213" y="733"/>
      <point x="213" y="684" type="curve" smooth="yes"/>
      <point x="213" y="635"/>
      <point x="253" y="595"/>
    </contour>
  </outline>
</glyph>
<glyph name="uni0308" format="2">
  <unicode hex="0308"/>
  <anchor x="300" y="516" name="_top"/>
  <outline>
    <contour>
      <point x="184" y="602" type="curve" smooth="yes"/>
      <point x="230" y="602"/>
      <point x="265" y="636"/>
      <point x="265" y="684" type="curve" smooth="yes"/>
      <point x="265" y="732"/>
      <point x="230" y="766"/>
      <point x="184" y="766" type="curve" smooth="yes"/>
      <point x="138" y="766"/>
      <point x="103" y="732"/>
      <point x="103" y="684" type="curve" smooth="yes"/>
      <point x="103" y="636"/>
      <point x="138" y="602"/>
    </contour>
    <contour>
      <point x="416" y="602" type="curve" smooth="yes"/>
      <point x="462" y="602"/>
      <point x="497" y="636"/>
      <point x="497" y="684" type="curve" smooth="yes"/>
      <point x="497" y="732"/>
      <point x="462" y="766"/>
      <point x="416" y="766" type="curve" smooth="yes"/>
      <point x="370" y="766"/>
      <point x="335" y="732"/>
      <point x="335" y="684" type="curve" smooth="yes"/>
      <point x="335" y="636"/>
      <point x="370" y="602"/>
    </contour>
  </outline>
</glyph>
<glyph name="uni030B" format="2">
  <unicode hex="030B"/>
  <anchor x="300" y="516" name="_top"/>
  <outline>
    <contour>
      <point x="105" y="603" type="line"/>
      <point x="226" y="603" type="line"/>
      <point x="384" y="746" type="line"/>
      <point x="240" y="746" type="line"/>
    </contour>
    <contour>
      <point x="332" y="603" type="line"/>
      <point x="444" y="603" type="line"/>
      <point x="613" y="746" type="line"/>
      <point x="467" y="746" type="line"/>
    </contour>
  </outline>
</glyph>
<glyph name="uni030C" format="2">
  <unicode hex="030C"/>
  <anchor x="300" y="516" name="_top"/>
  <outline>
    <contour>
      <point x="222" y="604" type="line"/>
      <point x="378" y="604" type="line"/>
      <point x="506" y="755" type="line"/>
      <point x="383" y="755" type="line"/>
      <point x="302" y="672" type="line"/>
      <point x="220" y="755" type="line"/>
      <point x="94" y="755" type="line"/>
    </contour>
  </outline>
</glyph>
<glyph name="uni0326" format="2">
  <unicode hex="0326"/>
  <anchor x="299" y="0" name="_bottom"/>
  <outline>
    <contour>
      <point x="171" y="-305" type="line"/>
      <point x="283" y="-305" type="line"/>
      <point x="378" y="-90" type="line"/>
      <point x="234" y="-90" type="line"/>
    </contour>
  </outline>
</glyph>
<glyph name="uni0327" format="2">
  <unicode hex="0327"/>
  <anchor x="326" y="0" name="_bottom"/>
  <outline>
    <contour>
      <point x="326" y="-254" type="curve" smooth="yes"/>
      <point x="401" y="-254"/>
      <point x="458" y="-206"/>
      <point x="458" y="-144" type="curve" smooth="yes"/>
      <point x="458" y="-95"/>
      <point x="419" y="-63"/>
      <point x="356" y="-58" type="curve"/>
      <point x="370" y="0" type="line"/>
      <point x="297" y="0" type="line"/>
      <point x="270" y="-111" type="line"/>
      <point x="315" y="-111" type="line" smooth="yes"/>
      <point x="350" y="-111"/>
      <point x="371" y="-124"/>
      <point x="371" y="-146" type="curve" smooth="yes"/>
      <point x="371" y="-170"/>
      <point x="352" y="-183"/>
      <point x="317" y="-183" type="curve" smooth="yes"/>
      <point x="291" y="-183"/>
      <point x="263" y="-173"/>
      <point x="240" y="-155" type="curve"/>
      <point x="191" y="-212" type="line"/>
      <point x="223" y="-240"/>
      <point x="267" y="-254"/>
    </contour>
  </outline>
</glyph>
<glyph name="daggerdbl" format="2">
  <advance width="600"/>
  <unicode hex="2021"/>
  <guideline x="314" y="781" angle="0" identifier="5QWzWY8Oik"/>
  <outline>
    <contour>
      <point x="111" y="184" type="line"/>
      <point x="238" y="184" type="line"/>
      <point x="238" y="0" type="line"/>
      <point x="362" y="0" type="line"/>
      <point x="362" y="184" type="line"/>
      <point x="489" y="184" type="line"/>
      <point x="489" y="293" type="line"/>
      <point x="362" y="293" type="line"/>
      <point x="362" y="407" type="line"/>
      <point x="489" y="407" type="line"/>
      <point x="489" y="516" type="line"/>
      <point x="362" y="516" type="line"/>
      <point x="362" y="700" type="line"/>
      <point x="238" y="700" type="line"/>
      <point x="238" y="516" type="line"/>
      <point x="111" y="516" type="line"/>
      <point x="111" y="407" type="line"/>
      <point x="238" y="407" type="line"/>
      <point x="238" y="293" type="line"/>
      <point x="111" y="293" type="line"/>
    </contour>
  </outline>
</glyph>
<glyph name="bullet" format="2">
  <advance width="600"/>
  <unicode hex="2022"/>
  <outline>
    <contour>
      <point x="300" y="201" type="curve" smooth="yes"/>
      <point x="366" y="201"/>
      <point x="418" y="254"/>
      <point x="418" y="323" type="curve" smooth="yes"/>
      <point x="418" y="392"/>
      <point x="366" y="445"/>
      <point x="300" y="445" type="curve" smooth="yes"/>
      <point x="234" y="445"/>
      <point x="182" y="392"/>
      <point x="182" y="323" type="curve" smooth="yes"/>
      <point x="182" y="254"/>
      <point x="234" y="201"/>
    </contour>
  </outline>
</glyph>
<glyph name="ellipsis" format="2">
  <advance width="600"/>
  <unicode hex="2026"/>
  <guideline x="355" y="85" angle="0" identifier="l7XyiSVBK4"/>
  <outline>
    <contour>
      <point x="96" y="-10" type="curve" smooth="yes"/>
      <point x="142" y="-10"/>
      <point x="178" y="32"/>
      <point x="178" y="85" type="curve" smooth="yes"/>
      <point x="178" y="138"/>
      <point x="142" y="180"/>
      <point x="96" y="180" type="curve" smooth="yes"/>
      <point x="50" y="180"/>
      <point x="14" y="138"/>
      <point x="14" y="85" type="curve" smooth="yes"/>
      <point x="14" y="32"/>
      <point x="50" y="-10"/>
    </contour>
    <contour>
      <point x="300" y="-10" type="curve" smooth="yes"/>
      <point x="346" y="-10"/>
      <point x="382" y="32"/>
      <point x="382" y="85" type="curve" smooth="yes"/>
      <point x="382" y="138"/>
      <point x="346" y="180"/>
      <point x="300" y="180" type="curve" smooth="yes"/>
      <point x="254" y="180"/>
      <point x="218" y="138"/>
      <point x="218" y="85" type="curve" smooth="yes"/>
      <point x="218" y="32"/>
      <point x="254" y="-10"/>
    </contour>
    <contour>
      <point x="504" y="-10" type="curve" smooth="yes"/>
      <point x="550" y="-10"/>
      <point x="586" y="32"/>
      <point x="586" y="85" type="curve" smooth="yes"/>
      <point x="586" y="138"/>
      <point x="550" y="180"/>
      <point x="504" y="180" type="curve" smooth="yes"/>
      <point x="458" y="180"/>
      <point x="422" y="138"/>
      <point x="422" y="85" type="curve" smooth="yes"/>
      <point x="422" y="32"/>
      <point x="458" y="-10"/>
    </contour>
  </outline>
</glyph>
<glyph name="perthousand" format="2">
  <advance width="600"/>
  <unicode hex="2030"/>
  <outline>
    <contour>
      <point x="36" y="0" type="line"/>
      <point x="111" y="0" type="line"/>
      <point x="362" y="700" type="line"/>
      <point x="287" y="700" type="line"/>
    </contour>
    <contour>
      <point x="97" y="449" type="curve" smooth="yes"/>
      <point x="151" y="449"/>
      <point x="187" y="499"/>
      <point x="187" y="577" type="curve" smooth="yes"/>
      <point x="187" y="655"/>
      <point x="151" y="705"/>
      <point x="97" y="705" type="curve" smooth="yes"/>
      <point x="43" y="705"/>
      <point x="7" y="655"/>
      <point x="7" y="577" type="curve" smooth="yes"/>
      <point x="7" y="499"/>
      <point x="43" y="449"/>
    </contour>
    <contour>
      <point x="97" y="512" type="curve" smooth="yes"/>
      <point x="80" y="512"/>
      <point x="69" y="535"/>
      <point x="69" y="577" type="curve" smooth="yes"/>
      <point x="69" y="619"/>
      <point x="80" y="642"/>
      <point x="97" y="642" type="curve" smooth="yes"/>
      <point x="114" y="642"/>
      <point x="125" y="619"/>
      <point x="125" y="577" type="curve" smooth="yes"/>
      <point x="125" y="535"/>
      <point x="114" y="512"/>
    </contour>
    <contour>
      <point x="301" y="58" type="curve" smooth="yes"/>
      <point x="284" y="58"/>
      <point x="273" y="81"/>
      <point x="273" y="123" type="curve" smooth="yes"/>
      <point x="273" y="165"/>
      <point x="284" y="188"/>
      <point x="301" y="188" type="curve" smooth="yes"/>
      <point x="318" y="188"/>
      <point x="329" y="165"/>
      <point x="329" y="123" type="curve" smooth="yes"/>
      <point x="329" y="81"/>
      <point x="318" y="58"/>
    </contour>
    <contour>
      <point x="301" y="-5" type="curve" smooth="yes"/>
      <point x="355" y="-5"/>
      <point x="391" y="45"/>
      <point x="391" y="123" type="curve" smooth="yes"/>
      <point x="391" y="201"/>
      <point x="355" y="251"/>
      <point x="301" y="251" type="curve" smooth="yes"/>
      <point x="247" y="251"/>
      <point x="211" y="201"/>
      <point x="211" y="123" type="curve" smooth="yes"/>
      <point x="211" y="45"/>
      <point x="247" y="-5"/>
    </contour>
    <contour>
      <point x="503" y="58" type="curve" smooth="yes"/>
      <point x="486" y="58"/>
      <point x="475" y="81"/>
      <point x="475" y="123" type="curve" smooth="yes"/>
      <point x="475" y="165"/>
      <point x="486" y="188"/>
      <point x="503" y="188" type="curve" smooth="yes"/>
      <point x="520" y="188"/>
      <point x="531" y="165"/>
      <point x="531" y="123" type="curve" smooth="yes"/>
      <point x="531" y="81"/>
      <point x="520" y="58"/>
    </contour>
    <contour>
      <point x="503" y="-5" type="curve" smooth="yes"/>
      <point x="557" y="-5"/>
      <point x="593" y="45"/>
      <point x="593" y="123" type="curve" smooth="yes"/>
      <point x="593" y="201"/>
      <point x="557" y="251"/>
      <point x="503" y="251" type="curve" smooth="yes"/>
      <point x="449" y="251"/>
      <point x="413" y="201"/>
      <point x="413" y="123" type="curve" smooth="yes"/>
      <point x="413" y="45"/>
      <point x="449" y="-5"/>
    </contour>
  </outline>
</glyph>
<glyph name="guilsinglleft" format="2">
  <advance width="600"/>
  <unicode hex="2039"/>
  <outline>
    <contour>
      <point x="323" y="0" type="line"/>
      <point x="482" y="0" type="line"/>
      <point x="255" y="260" type="line"/>
      <point x="482" y="516" type="line"/>
      <point x="326" y="516" type="line"/>
      <point x="92" y="259" type="line"/>
    </contour>
  </outline>
</glyph>
<glyph name="fraction" format="2">
  <advance width="600"/>
  <unicode hex="2044"/>
  <outline>
    <contour>
      <point x="44" y="0" type="line"/>
      <point x="138" y="0" type="line"/>
      <point x="520" y="700" type="line"/>
      <point x="426" y="700" type="line"/>
    </contour>
  </outline>
</glyph>
<glyph name="uni2079" format="2">
  <advance width="600"/>
  <unicode hex="2079"/>
  <outline>
    <contour>
      <point x="286" y="707" type="curve" smooth="yes"/>
      <point x="209" y="707"/>
      <point x="152" y="657"/>
      <point x="152" y="590" type="curve" smooth="yes"/>
      <point x="152" y="529"/>
      <point x="198" y="488"/>
      <point x="267" y="488" type="curve" smooth="yes"/>
      <point x="302" y="488"/>
      <point x="333" y="503"/>
      <point x="354" y="529" type="curve"/>
      <point x="354" y="463"/>
      <point x="329" y="427"/>
      <point x="280" y="427" type="curve" smooth="yes"/>
      <point x="255" y="427"/>
      <point x="231" y="436"/>
      <point x="207" y="455" type="curve"/>
      <point x="159" y="384" type="line"/>
      <point x="192" y="358"/>
      <point x="232" y="344"/>
      <point x="273" y="344" type="curve" smooth="yes"/>
      <point x="377" y="344"/>
      <point x="447" y="418"/>
      <point x="447" y="528" type="curve" smooth="yes"/>
      <point x="447" y="636"/>
      <point x="383" y="707"/>
    </contour>
    <contour>
      <point x="288" y="557" type="curve" smooth="yes"/>
      <point x="261" y="557"/>
      <point x="243" y="571"/>
      <point x="243" y="592" type="curve" smooth="yes"/>
      <point x="243" y="612"/>
      <point x="263" y="627"/>
      <point x="289" y="627" type="curve" smooth="yes"/>
      <point x="315" y="627"/>
      <point x="336" y="609"/>
      <point x="347" y="580" type="curve"/>
      <point x="331" y="565"/>
      <point x="311" y="557"/>
    </contour>
  </outline>
</glyph>
<glyph name="uni2081" format="2">
  <advance width="600"/>
  <unicode hex="2081"/>
  <outline>
    <contour>
      <point x="284" y="0" type="line"/>
      <point x="379" y="0" type="line"/>
      <point x="379" y="350" type="line"/>
      <point x="320" y="350" type="line"/>
      <point x="211" y="305" type="line"/>
      <point x="211" y="224" type="line"/>
      <point x="284" y="253" type="line"/>
    </contour>
  </outline>
</glyph>
<glyph name="uni2084" format="2">
  <advance width="600"/>
  <unicode hex="2084"/>
  <outline>
    <contour>
      <point x="322" y="0" type="line"/>
      <point x="416" y="0" type="line"/>
      <point x="416" y="73" type="line"/>
      <point x="458" y="73" type="line"/>
      <point x="458" y="147" type="line"/>
      <point x="416" y="147" type="line"/>
      <point x="416" y="350" type="line"/>
      <point x="306" y="350" type="line"/>
      <point x="136" y="150" type="line"/>
      <point x="136" y="73" type="line"/>
      <point x="322" y="73" type="line"/>
    </contour>
    <contour>
      <point x="230" y="147" type="line"/>
      <point x="322" y="256" type="line"/>
      <point x="322" y="147" type="line"/>
    </contour>
  </outline>
</glyph>
<glyph name="uni2086" format="2">
  <advance width="600"/>
  <unicode hex="2086"/>
  <outline>
    <contour>
      <point x="313" y="-6" type="curve" smooth="yes"/>
      <point x="390" y="-6"/>
      <point x="447" y="44"/>
      <point x="447" y="111" type="curve" smooth="yes"/>
      <point x="447" y="172"/>
      <point x="401" y="213"/>
      <point x="332" y="213" type="curve" smooth="yes"/>
      <point x="297" y="213"/>
      <point x="266" y="198"/>
      <point x="245" y="172" type="curve"/>
      <point x="245" y="238"/>
      <point x="270" y="274"/>
      <point x="319" y="274" type="curve" smooth="yes"/>
      <point x="344" y="274"/>
      <point x="368" y="265"/>
      <point x="392" y="246" type="curve"/>
      <point x="440" y="317" type="line"/>
      <point x="407" y="343"/>
      <point x="367" y="357"/>
      <point x="326" y="357" type="curve" smooth="yes"/>
      <point x="222" y="357"/>
      <point x="152" y="283"/>
      <point x="152" y="173" type="curve" smooth="yes"/>
      <point x="152" y="65"/>
      <point x="216" y="-6"/>
    </contour>
    <contour>
      <point x="311" y="144" type="curve" smooth="yes"/>
      <point x="338" y="144"/>
      <point x="356" y="130"/>
      <point x="356" y="109" type="curve" smooth="yes"/>
      <point x="356" y="89"/>
      <point x="336" y="74"/>
      <point x="310" y="74" type="curve" smooth="yes"/>
      <point x="284" y="74"/>
      <point x="263" y="92"/>
      <point x="252" y="121" type="curve"/>
      <point x="268" y="136"/>
      <point x="288" y="144"/>
    </contour>
  </outline>
</glyph>
<glyph name="uni2087" format="2">
  <advance width="600"/>
  <unicode hex="2087"/>
  <outline>
    <contour>
      <point x="194" y="0" type="line"/>
      <point x="307" y="0" type="line"/>
      <point x="437" y="281" type="line"/>
      <point x="437" y="350" type="line"/>
      <point x="153" y="350" type="line"/>
      <point x="153" y="268" type="line"/>
      <point x="333" y="268" type="line"/>
    </contour>
  </outline>
</glyph>
<glyph name="uni2088" format="2">
  <advance width="600"/>
  <unicode hex="2088"/>
  <outline>
    <contour>
      <point x="300" y="-5" type="curve" smooth="yes"/>
      <point x="384" y="-5"/>
      <point x="442" y="37"/>
      <point x="442" y="96" type="curve" smooth="yes"/>
      <point x="442" y="135"/>
      <point x="414" y="166"/>
      <point x="373" y="177" type="curve"/>
      <point x="409" y="190"/>
      <point x="433" y="219"/>
      <point x="433" y="255" type="curve" smooth="yes"/>
      <point x="433" y="311"/>
      <point x="374" y="355"/>
      <point x="300" y="355" type="curve" smooth="yes"/>
      <point x="226" y="355"/>
      <point x="167" y="311"/>
      <point x="167" y="255" type="curve" smooth="yes"/>
      <point x="167" y="219"/>
      <point x="191" y="190"/>
      <point x="227" y="177" type="curve"/>
      <point x="186" y="166"/>
      <point x="158" y="135"/>
      <point x="158" y="96" type="curve" smooth="yes"/>
      <point x="158" y="37"/>
      <point x="216" y="-5"/>
    </contour>
    <contour>
      <point x="300" y="208" type="curve" smooth="yes"/>
      <point x="276" y="208"/>
      <point x="259" y="223"/>
      <point x="259" y="244" type="curve" smooth="yes"/>
      <point x="259" y="265"/>
      <point x="276" y="280"/>
      <point x="300" y="280" type="curve" smooth="yes"/>
      <point x="324" y="280"/>
      <point x="341" y="265"/>
      <point x="341" y="244" type="curve" smooth="yes"/>
      <point x="341" y="223"/>
      <point x="324" y="208"/>
    </contour>
    <contour>
      <point x="300" y="70" type="curve" smooth="yes"/>
      <point x="271" y="70"/>
      <point x="253" y="84"/>
      <point x="253" y="106" type="curve" smooth="yes"/>
      <point x="253" y="128"/>
      <point x="271" y="142"/>
      <point x="300" y="142" type="curve" smooth="yes"/>
      <point x="329" y="142"/>
      <point x="347" y="128"/>
      <point x="347" y="106" type="curve" smooth="yes"/>
      <point x="347" y="84"/>
      <point x="329" y="70"/>
    </contour>
  </outline>
</glyph>
<glyph name="uni2089" format="2">
  <advance width="600"/>
  <unicode hex="2089"/>
  <outline>
    <contour>
      <point x="286" y="357" type="curve" smooth="yes"/>
      <point x="209" y="357"/>
      <point x="152" y="307"/>
      <point x="152" y="240" type="curve" smooth="yes"/>
      <point x="152" y="179"/>
      <point x="198" y="138"/>
      <point x="267" y="138" type="curve" smooth="yes"/>
      <point x="302" y="138"/>
      <point x="333" y="153"/>
      <point x="354" y="179" type="curve"/>
      <point x="354" y="113"/>
      <point x="329" y="77"/>
      <point x="280" y="77" type="curve" smooth="yes"/>
      <point x="255" y="77"/>
      <point x="231" y="86"/>
      <point x="207" y="105" type="curve"/>
      <point x="159" y="34" type="line"/>
      <point x="192" y="8"/>
      <point x="232" y="-6"/>
      <point x="273" y="-6" type="curve" smooth="yes"/>
      <point x="377" y="-6"/>
      <point x="447" y="68"/>
      <point x="447" y="178" type="curve" smooth="yes"/>
      <point x="447" y="286"/>
      <point x="383" y="357"/>
    </contour>
    <contour>
      <point x="288" y="207" type="curve" smooth="yes"/>
      <point x="261" y="207"/>
      <point x="243" y="221"/>
      <point x="243" y="242" type="curve" smooth="yes"/>
      <point x="243" y="262"/>
      <point x="263" y="277"/>
      <point x="289" y="277" type="curve" smooth="yes"/>
      <point x="315" y="277"/>
      <point x="336" y="259"/>
      <point x="347" y="230" type="curve"/>
      <point x="331" y="215"/>
      <point x="311" y="207"/>
    </contour>
  </outline>
</glyph>
<glyph name="Euro" format="2">
  <advance width="600"/>
  <unicode hex="20AC"/>
  <outline>
    <contour>
      <point x="350" y="-11" type="curve" smooth="yes"/>
      <point x="457" y="-11"/>
      <point x="541" y="42"/>
      <point x="586" y="154" type="curve"/>
      <point x="442" y="209" type="line"/>
      <point x="419" y="157"/>
      <point x="391" y="132"/>
      <point x="354" y="132" type="curve" smooth="yes"/>
      <point x="308" y="132"/>
      <point x="269" y="165"/>
      <point x="252" y="245" type="curve"/>
      <point x="355" y="245" type="line"/>
      <point x="385" y="323" type="line"/>
      <point x="243" y="323" type="line"/>
      <point x="242" y="332"/>
      <point x="242" y="341"/>
      <point x="242" y="350" type="curve" smooth="yes"/>
      <point x="242" y="359"/>
      <point x="242" y="368"/>
      <point x="243" y="377" type="curve"/>
      <point x="403" y="377" type="line"/>
      <point x="432" y="455" type="line"/>
      <point x="252" y="455" type="line"/>
      <point x="269" y="535"/>
      <point x="308" y="568"/>
      <point x="354" y="568" type="curve" smooth="yes"/>
      <point x="389" y="568"/>
      <point x="418" y="545"/>
      <point x="441" y="495" type="curve"/>
      <point x="585" y="550" type="line"/>
      <point x="542" y="660"/>
      <point x="457" y="711"/>
      <point x="350" y="711" type="curve" smooth="yes"/>
      <point x="223" y="711"/>
      <point x="119" y="621"/>
      <point x="88" y="455" type="curve"/>
      <point x="19" y="455" type="line"/>
      <point x="19" y="377" type="line"/>
      <point x="80" y="377" type="line"/>
      <point x="79" y="368"/>
      <point x="79" y="359"/>
      <point x="79" y="350" type="curve" smooth="yes"/>
      <point x="79" y="341"/>
      <point x="79" y="332"/>
      <point x="80" y="323" type="curve"/>
      <point x="19" y="323" type="line"/>
      <point x="19" y="245" type="line"/>
      <point x="88" y="245" type="line"/>
      <point x="119" y="79"/>
      <point x="223" y="-11"/>
    </contour>
  </outline>
</glyph>
<glyph name="trademark" format="2">
  <advance width="600"/>
  <unicode hex="2122"/>
  <outline>
    <contour>
      <point x="270" y="411" type="line"/>
      <point x="336" y="411" type="line"/>
      <point x="335" y="606" type="line"/>
      <point x="421" y="428" type="line"/>
      <point x="505" y="607" type="line"/>
      <point x="503" y="411" type="line"/>
      <point x="572" y="411" type="line"/>
      <point x="572" y="700" type="line"/>
      <point x="480" y="700" type="line"/>
      <point x="421" y="570" type="line"/>
      <point x="362" y="700" type="line"/>
      <point x="270" y="700" type="line"/>
    </contour>
    <contour>
      <point x="90" y="411" type="line"/>
      <point x="168" y="411" type="line"/>
      <point x="168" y="633" type="line"/>
      <point x="245" y="633" type="line"/>
      <point x="245" y="700" type="line"/>
      <point x="14" y="700" type="line"/>
      <point x="14" y="633" type="line"/>
      <point x="90" y="633" type="line"/>
    </contour>
  </outline>
</glyph>
<glyph name="uni2191" format="2">
  <advance width="600"/>
  <unicode hex="2191"/>
  <outline>
    <contour>
      <point x="225" y="0" type="line"/>
      <point x="376" y="0" type="line"/>
      <point x="376" y="472" type="line"/>
      <point x="510" y="309" type="line"/>
      <point x="605" y="394" type="line"/>
      <point x="301" y="750" type="line"/>
      <point x="-5" y="393" type="line"/>
      <point x="88" y="311" type="line"/>
      <point x="225" y="476" type="line"/>
    </contour>
  </outline>
</glyph>
<glyph name="acutecomb" format="2">
  <anchor x="300" y="516" name="_top"/>
  <outline>
    <contour>
      <point x="208" y="601" type="line"/>
      <point x="347" y="601" type="line"/>
      <point x="539" y="747" type="line"/>
      <point x="346" y="747" type="line"/>
    </contour>
  </outline>
</glyph>
<glyph name="caronSlovak" format="2">
  <advance width="600"/>
  <outline>
    <contour>
      <point x="321" y="498" type="line"/>
      <point x="410" y="498" type="line"/>
      <point x="450" y="737" type="line"/>
      <point x="325" y="714" type="line"/>
    </contour>
  </outline>
</glyph>
